<svg xmlns="http://www.w3.org/2000/svg" width="184.382" height="184.382" viewBox="0 0 184.382 184.382"><g transform="translate(84.663 84.607)"><circle cx="65.199" cy="65.199" r="65.199" transform="translate(-84.663 7.584) rotate(-45)" fill="#ff6c6c"/><path d="M264.465,17.6V148a65.2,65.2,0,1,0,0-130.4Z" transform="translate(-256.922 -75.212)" fill="#e63950"/><ellipse cx="43.328" cy="43.328" rx="43.328" ry="43.328" transform="translate(-42.364 -27.987) rotate(-9.5)" fill="#f0f7ff"/><path d="M264.465,100.407v86.656a43.328,43.328,0,1,0,0-86.656Z" transform="translate(-256.922 -136.151)" fill="#dfe7f4"/><circle cx="21.458" cy="21.458" r="21.458" transform="matrix(0.454, -0.891, 0.891, 0.454, -21.31, 16.985)" fill="#ff6c6c"/><path d="M264.465,183.218v42.916a21.458,21.458,0,1,0,0-42.916Z" transform="translate(-256.922 -197.092)" fill="#e63950"/><path d="M48.293,20.318,29.135,1.16a3.961,3.961,0,0,0-6.513,1.418L18.7,13.1l1.12,6.722L13.1,18.7,2.578,22.622A3.961,3.961,0,0,0,1.16,29.135L20.318,48.293a3.963,3.963,0,0,0,3.508,1.1l18.939-3.433a3.963,3.963,0,0,0,3.191-3.191L49.39,23.826a3.962,3.962,0,0,0-1.1-3.508Z" transform="translate(-62.303 -62.262)" fill="#ebebeb"/><path d="M109.145,103.543,55.2,49.6l-1.521,4.081L49.6,55.2l53.946,53.946a3.962,3.962,0,0,0,5.6-5.6Z" transform="translate(-98.801 -98.76)" fill="#0b3265"/></g></svg>