
<svg data-name="New Layer" xmlns="http://www.w3.org/2000/svg" width="104.42" height="104.42"><g data-name="Group 1"><circle data-name="Ellipse 3" cx="51.75" cy="51.75" r="51.75" transform="translate(.46 .46)" fill="#fff"/><path data-name="Path 1" d="M52.21 104.42A52.22 52.22 0 0 1 31.89 4.1a52.22 52.22 0 0 1 40.64 96.21 51.88 51.88 0 0 1-20.32 4.1Zm0-103.5A51.3 51.3 0 1 0 103.5 52.2 51.35 51.35 0 0 0 52.21.91Z" fill="#afb2b4"/></g><circle data-name="Ellipse 4" cx="37.77" cy="37.77" r="37.77" transform="translate(14.44 14.05)" fill="#afb2b4"/><g data-name="Group 2" transform="translate(5.4 2.1)" fill="#262e67"><path data-name="Path 2" d="M44.67.05a49.8 49.8 0 0 0-7.7.88l-.8.17-.87.2-.89.2c-.27.06-.6.15-.73.2s-.4.1-.6.15l-.56.17-.62.19c-.84.26-2.54.83-2.83.96l-.44.17-.48.19-.53.22-.46.18-.74.33c-.5.21-.6.26-1.86.88-1.13.56-1.7.85-2.4 1.25-.12.07-.33.2-.49.27a3.4 3.4 0 0 0-.35.2 5.35 5.35 0 0 1-.46.28 48.18 48.18 0 0 0-5.5 3.85 51.18 51.18 0 0 0-9.7 10.4 118.08 118.08 0 0 0-1.94 3l-.22.35-.2.35c-.04.07-.12.24-.2.36-.4.7-1.58 3.01-1.95 3.86l-.16.33a.69.69 0 0 0-.07.23 5.01 5.01 0 0 0 .66.8l1.58 1.7c.9.97.94 1 1.22 1.08l1.24.3 1.16.3c.89.24 1.18.31 1.83.46a3.35 3.35 0 0 1 .4.11 1.62 1.62 0 0 0 .29.08c.13.02.47.1.76.19s.56.14.6.14a.7.7 0 0 0 .18-.29l.2-.44.2-.43a57.93 57.93 0 0 1 1.53-3.03l.21-.38.21-.33a1.73 1.73 0 0 0 .15-.26 1.5 1.5 0 0 1 .13-.23 37.8 37.8 0 0 1 5.7-7.2 37.02 37.02 0 0 1 5.9-4.86 30.87 30.87 0 0 1 3.09-1.86 68.26 68.26 0 0 1 2.91-1.42 26.8 26.8 0 0 1 1.73-.71 2.88 2.88 0 0 1 .27-.1l.54-.19.54-.19.49-.16.62-.2.56-.16 1.38-.37.62-.15c.62-.15 1.84-.4 2.19-.44.13-.01.44-.07.7-.11a40.8 40.8 0 0 1 11.76 0c.23.04.53.1.68.1a33.15 33.15 0 0 1 2.75.58c.33.05 2.39.65 2.97.85l.57.2.62.22.32.12.27.1a37.16 37.16 0 0 1 5.1 2.43 18.52 18.52 0 0 1 1.63 1 .91.91 0 0 0 .17.1c.08 0 2.01 1.36 2.81 1.98a46.18 46.18 0 0 1 4.92 4.54 43.04 43.04 0 0 1 3.96 5.16 2.54 2.54 0 0 0 .18.29c.2.29.18.27.62 1l.35.63.25.45c.2.34 1.14 2.23 1.33 2.65l.26.58a3.57 3.57 0 0 1 .2.47c0 .1.11.12.34.04a12.02 12.02 0 0 1 1.17-.3 64.56 64.56 0 0 0 2.13-.55c.12-.03.46-.11.76-.2s.62-.15.72-.18c.3-.06.88-.2 1.06-.26.09-.03.26-.08.38-.1.17-.05.3-.16.62-.5.22-.26.62-.69.89-.97l1.02-1.1.64-.7c.17-.18.15-.25-.49-1.6a52.34 52.34 0 0 0-2-3.8l-.2-.33-.5-.85c-.26-.42-1.6-2.43-1.8-2.68l-.82-1.09a45.42 45.42 0 0 0-4.52-5.18 48.73 48.73 0 0 0-6.18-5.27c-.25-.2-2.61-1.77-2.9-1.94l-.43-.26-.28-.16-.32-.2-.65-.37-.49-.27a50 50 0 0 0-4.02-1.97.81.81 0 0 1-.19-.08 27.37 27.37 0 0 0-2.27-.92c-.25-.12-1.95-.7-2.83-.97l-.62-.19-.57-.16-.6-.16c-.3-.1-1.94-.48-2.45-.6a47.37 47.37 0 0 0-6.54-.95C50.04.12 46.72 0 46.24.02l-1.57.04Zm1.2 2.39c.1.63.22 1.65.25 2.06a7.02 7.02 0 0 0 .26 1.47 5.16 5.16 0 0 0 1.46.07 6.64 6.64 0 0 0 1.81-.11 4.4 4.4 0 0 0 .43-.13c.05-.06-.08-.15-.46-.34l-.6-.28a1.62 1.62 0 0 0-.63-.1c-.33 0-.43-.01-.42-.07a1.54 1.54 0 0 1 .6-.63.77.77 0 0 1 .67-.17 2.74 2.74 0 0 1 1.3.5 7.28 7.28 0 0 0 2.05.87 1.04 1.04 0 0 1 .4.16.68.68 0 0 1-.12.3c-.24.43-.22.44.86.56.45.04.86.1.92.11.13.04.17 0 .62-.64a2.45 2.45 0 0 1 .92-.81 4.78 4.78 0 0 1 1.08-.3c.14 0 .24.19.32.56l.14.69c.11.55.1.7-.1.97a3.44 3.44 0 0 1-.62.7l-.86-.4a6.86 6.86 0 0 0-.92-.4 1.11 1.11 0 0 0-.4.33l-.3.33-.5-.06-1.2-.15a4.4 4.4 0 0 1-.8-.13c-.08-.05-.1-.13-.12-.4 0-.22-.04-.33-.1-.36a5.6 5.6 0 0 0-.7-.13l-.62-.09-.4.13-.78.28a9.09 9.09 0 0 1-2.62.28c-.76.03-.85 0-.91-.3-.02-.1-.06-.2-.1-.2s-.13.1-.23.24l-.16.26-.37.04c-.2.02-.53.03-.73.03-.35 0-.39 0-.58-.18-.26-.23-.3-.24-.45-.05-.1.1-.19.14-.62.2l-.6.12a.32.32 0 0 1-.24-.06c-.14-.08-.15-.08-.26.02a2.8 2.8 0 0 1-1.16.33 2.76 2.76 0 0 0-.42.07 1.27 1.27 0 0 0-.06.27 2.7 2.7 0 0 1-.4 1.14 4.9 4.9 0 0 1-1.3.88 1.67 1.67 0 0 1-.97.22c-.74.03-.89 0-1.17-.23a1.43 1.43 0 0 1-.4-1.21c.01-.77.26-1.9.43-1.9.1 0 .12.1.07.36l-.11.62a.92.92 0 0 0 .06.68c.31.73 1.34.87 2.4.34a2.64 2.64 0 0 0 .98-.7 3.25 3.25 0 0 0-.63-1.23c-.17-.23-.25-.4-.23-.44l.13-.35a2.23 2.23 0 0 1 .2-.4l.1-.13.28.39c.35.47.55.61.82.57l.64-.08c.6-.08.65-.11.65-.4 0-.37.47-1.21.5-.89l.01.56c0 .57 0 .56.6.42l.41-.08-.03-.16a1.88 1.88 0 0 0-.12-.34.3.3 0 0 1 0-.34l.17-.39c.05-.13.14-.23.17-.23s.07.01.07.03a8.68 8.68 0 0 0 .23 1.01.37.37 0 0 0 .35.26.28.28 0 0 1 .2.13l.08.14.75-.03a3.66 3.66 0 0 0 .8-.1c.07-.05.06-.28-.06-.82l-.2-1-.19-.95c-.07-.31-.05-.35.34-.92.15-.21.26-.32.3-.3s.1.18.14.41Zm-14.3 2.48.32.7a6.08 6.08 0 0 1 .28.64.59.59 0 0 0 .07.2 14.24 14.24 0 0 1 .55 1.39 5.01 5.01 0 0 1 .11 1.5c-.05.21-.12.18-.26-.14l-.36-.76-.43-.92-.38-.82-.28-.61a.54.54 0 0 1-.06-.49l.13-.53c.04-.22.08-.28.16-.28a.19.19 0 0 1 .15.11Zm31.18.19a2.42 2.42 0 0 1 .24.26c.13.18.2.24.32.24a.28.28 0 0 0 .2-.06c.01-.03.1-.05.2-.05.15 0 .22.05.4.27.12.15.22.3.2.34a1.68 1.68 0 0 1-.6.3 1.12 1.12 0 0 1-.29-.24c-.34-.35-.4-.37-.66-.26l-.22.1-.26-.29a1.86 1.86 0 0 1-.26-.32 2.17 2.17 0 0 1 .62-.33.2.2 0 0 1 .11.04Zm-33.87.57a2.2 2.2 0 0 0 .72.2 3.46 3.46 0 0 1 .53.09c.07.04 0 .42-.13.8l-.1.3.13.28c.07.16.27.51.43.8a3.1 3.1 0 0 1 .5 1.28c.07.29.07.4.03.46a1.95 1.95 0 0 1-.65.34l-.47.2a1.41 1.41 0 0 1-.28.1 2.69 2.69 0 0 0-.55.23c-.12.06-.13.1-.12.39a5.08 5.08 0 0 1-.27 1.7c-.3.64-.7.8-2.04.82l-.8.01-.03.33a1.38 1.38 0 0 1-.64 1.19 6.93 6.93 0 0 1-2.1.42c-.1-.06.1-.23.33-.27.77-.13 1.12-.48 1.43-1.45a3.17 3.17 0 0 0 .23-1.26c-.04-.49-.16-.56-1.4-.8a.3.3 0 0 1-.2-.15 2.72 2.72 0 0 1-.2-.82c.03-.1.24-.1.55-.02a2.56 2.56 0 0 1 1.91 2.22c.04.23.1.39.15.4a2.2 2.2 0 0 0 .54-.05 2 2 0 0 0 1.19-.66 5.19 5.19 0 0 0 .71-1.44c0-.2-.07-.19-.45-.02a2.7 2.7 0 0 1-.64.17c-.7.07-.9-.23-.95-1.44a2.3 2.3 0 0 1 .08-.97c.26-.73.86-.62 1.82.37.44.44.35.43 1.09.14.84-.33 1-.41 1-.5a3.51 3.51 0 0 0-.45-.9 5.14 5.14 0 0 0-1.07-1.4c-.24-.11-.31-.22-.29-.43l.06-.48c.03-.35.07-.36.4-.18Zm31.63 2.09a5.33 5.33 0 0 0-.06.73c0 .4.02.46.12.56.24.22.64.1 1.44-.41.98-.64 1.31-.76 1.62-.57l.17.12v.53c0 .6.05.72.35.82.11.03.44.18.73.32q.88.44 1.22.08a2.04 2.04 0 0 1 .88-.43c.2-.06.13.07-.27.48-.3.31-.37.43-.35.5a2.48 2.48 0 0 0 .91.58.38.38 0 0 1 .18.09c.07.11.23.03.4-.2a.7.7 0 0 1 .31-.27.78.78 0 0 0 .2-.08.86.86 0 0 1 .26-.1c.18-.05.21-.04.24.03.02.05-.01.12-.08.17a1.69 1.69 0 0 0-.5.69c0 .08.08.16.31.28a.84.84 0 0 0 .38.12.9.9 0 0 0 .16-.3c.09-.24.13-.28.45-.44.35-.18.59-.22.59-.12a9.01 9.01 0 0 1-.64 1.2 2.67 2.67 0 0 1-.48.48l-.35.27-.6-.3c-.5-.24-.62-.33-.64-.42s-.06-.13-.34-.17a2.85 2.85 0 0 1-.8-.25c-.6-.28-.83-.45-.85-.64-.02-.14-.03-.15-.3-.13a1.36 1.36 0 0 1-.8-.23 4.37 4.37 0 0 0-.58-.25 1.06 1.06 0 0 1-.52-.4 1.87 1.87 0 0 1-.1-.56c-.03-.47-.11-.6-.36-.6a1.68 1.68 0 0 0-.99.4l-.77.54c-.8.54-1.26.3-1.16-.62a5.85 5.85 0 0 1 .54-1.71.37.37 0 0 1 .12-.1 1.08 1.08 0 0 1-.04.3Zm-10.8.7a1.13 1.13 0 0 1 .27.26 1.61 1.61 0 0 1-.63.49 2.65 2.65 0 0 1-.7-.45c-.04-.05.12-.25.31-.4.26-.17.43-.16.75.1ZM22.5 9.5c.05.04.06.13.03.34-.05.43-.07.45-.33.45-.29 0-.49-.07-.56-.2a.77.77 0 0 1 .13-.64 1.02 1.02 0 0 1 .73.05Zm50.36.07a1.11 1.11 0 0 1-.13.32c-.29.49-1.42 2.7-1.56 3.06-.1.21-.09.22.03.35a1.25 1.25 0 0 0 .24.2c.06.03.34.21.6.4 1.47 1.04 1.4 1 1.53.84a1.6 1.6 0 0 0 .09-.65c.02-.54.03-.57.17-.67a.75.75 0 0 1 .2-.1 1.94 1.94 0 0 0 .27-.12c.3-.15.4-.11.4.15a4.04 4.04 0 0 1-.28 1.27 6.05 6.05 0 0 1-1.25 1.29.44.44 0 0 1-.2-.1l-.84-.58-1.02-.7-.74-.49c-.3-.17-.42-.28-.42-.35a1.76 1.76 0 0 1 .19-.47 155.97 155.97 0 0 0 .9-1.68l.42-.79.36-.68c.17-.32.19-.34.58-.47s.46-.14.46-.03Zm2.66 1.65c.27.12.34.23.26.4-.12.2-.23.2-.4 0a.52.52 0 0 0-.65-.18c-.1.08-.1.1-.03.23a2.23 2.23 0 0 0 .47.45 2.94 2.94 0 0 1 .42.37c.08.18-.33.3-.5.15a2.37 2.37 0 0 0-.62-.18 2.99 2.99 0 0 1-.57-.15c-.05-.05.12-.13.3-.13.21 0 .22-.05.06-.27-.21-.29-.03-.52.52-.68a1.13 1.13 0 0 1 .75 0Zm-54.57 1.65a2.64 2.64 0 0 1 1.77 2.13 2.4 2.4 0 0 0 .16.5.15.15 0 0 1 0 .18.99.99 0 0 0-.06.37 1.49 1.49 0 0 1-.43.94 5.73 5.73 0 0 1-2.25.6c-.13-.05-.08-.17.08-.2a5.42 5.42 0 0 0 .9-.32c.36-.19.66-.82.86-1.84.11-.55.1-.67-.03-.94-.12-.22-.16-.25-.45-.34a2.53 2.53 0 0 0-.6-.1c-.35 0-.44-.03-.53-.2a5.06 5.06 0 0 1-.24-.85c0-.1.42-.06.83.07Zm-4.56.48c.17.14.69.63 1.16 1.1a5.34 5.34 0 0 1 1.62 2.07c.1.3.11.41.05.41-.05 0-.7-.56-2.31-1.99l-.7-.61-.12-.41c-.13-.46-.16-.82-.07-.82a1.44 1.44 0 0 1 .38.25Zm60.79 2.58c.05.06.06.24.04.66a1.73 1.73 0 0 1-.2.9 3.54 3.54 0 0 1-2.23 1.6 1.39 1.39 0 0 1-1.84-.76 6.18 6.18 0 0 1-.63-1.3c0-.2.14-.1.38.25.32.5.41.6.7.74.22.1.33.11 1.27.12.95 0 1.04-.01 1.24-.12.35-.19.37-.24.37-.79a6.08 6.08 0 0 0-.05-.69l-.03-.2.42-.25.46-.25c.02 0 .06.05.1.1Zm-60.72.33a1.03 1.03 0 0 1 .15.36c.05.25.05.29-.03.35a.35.35 0 0 1-.18.07 1.08 1.08 0 0 0-.32.1.63.63 0 0 0-.34.34 1.28 1.28 0 0 0-.1.32c0 .15.2.22.4.16a6.08 6.08 0 0 0 1.26-.9 3 3 0 0 1 .44-.35 1 1 0 0 1 .12.41l.06.41-.16.2a3.78 3.78 0 0 0-.74 1.42c-.2.7-.17.67-.27.58-.08-.06-.09-.16-.06-.55.02-.53-.03-.63-.25-.43-.32.28-.62.3-.84.05a2.08 2.08 0 0 1-.27-1.92c.27-.6.8-.9 1.13-.62Zm-5.99 5.4.2.5a6.78 6.78 0 0 0 .3.71.39.39 0 0 0 .18.22c.05.02.48.05.95.07.64.03.84.05.84.1a4.65 4.65 0 0 1-.7.67c-.61.5-.7.6-.68.71l.3 1.3a2.46 2.46 0 0 1 .09.47 3.12 3.12 0 0 1-.55-.29l-.81-.5-.3-.18-.17.1c-.22.13-.89.55-1.07.68-.23.16-.42.22-.42.13l.22-.92.21-.86-.2-.2a48 48 0 0 0-.7-.6 2.59 2.59 0 0 1-.5-.5c0-.05.18-.07.85-.1.46-.03.89-.06.94-.08a1.02 1.02 0 0 0 .26-.44l.21-.51.3-.75c.02-.1.04-.1.1-.03a1.17 1.17 0 0 1 .15.3Zm71.43.1.27.7c.28.72.16.65 1.2.7.5.02.93.05.95.07.07.04-.08.22-.4.47-.16.12-.45.35-.63.51-.37.33-.4.42-.26.88a3.35 3.35 0 0 1 .26 1.34 1.9 1.9 0 0 1-.37-.2 9.04 9.04 0 0 0-1.24-.77 1.2 1.2 0 0 0-.3.16 13.33 13.33 0 0 1-1.34.81c-.08 0-.07-.1.02-.38.08-.26.23-.85.3-1.23.07-.3.06-.3-.74-.96-.52-.44-.65-.58-.56-.64.02 0 .43-.04.91-.06a3.03 3.03 0 0 0 .93-.1 4.24 4.24 0 0 0 .25-.55 32.92 32.92 0 0 1 .37-.9c.11-.28.23-.24.38.15Z" fill-rule="evenodd"/><path data-name="Path 3" d="M56.17 5.86c-.29.07-.32.26-.07.37a3.06 3.06 0 0 1 .54.3c.2.14.32.06.27-.19-.09-.45-.3-.59-.74-.48Z" fill-rule="evenodd"/><path data-name="Path 4" d="M26.7 9.75c-.16.17-.19.44-.06.55a.94.94 0 0 0 .78.02c.33-.17.26-.4-.17-.62-.27-.14-.38-.13-.55.05Z" fill-rule="evenodd"/><path data-name="Path 5" d="M45.07 13.1a1.46 1.46 0 0 0-.65.7c-.18.35-.18.38-.18 1.09a2.15 2.15 0 0 0 .1.97c.26.6.57.83 1.1.83.3 0 .35-.01.52-.18.24-.23.4-.52.32-.6-.03-.03-.14.04-.33.22-.32.3-.49.34-.72.15-.26-.22-.37-.66-.37-1.5a2.2 2.2 0 0 1 .1-.99c.31-.7.8-.59 1.15.25.11.29.18.14.16-.37l-.03-.5c0-.01-.07 0-.12.03-.07.04-.16.03-.32-.05a1.16 1.16 0 0 0-.73-.06Z" fill-rule="evenodd"/><path data-name="Path 6" d="M47.58 13.1a1.48 1.48 0 0 0-.73.75 1.82 1.82 0 0 0-.2.96 2.16 2.16 0 0 0 .1.93c.23.7.5.95 1.04.95a.66.66 0 0 0 .51-.13 1.75 1.75 0 0 0 .55-.88 2.1 2.1 0 0 0 .1-1 1.84 1.84 0 0 0-.16-.9 1.16 1.16 0 0 0-.45-.55 1.24 1.24 0 0 0-.76-.14Zm.47.32c.23.25.26.41.26 1.3a3.7 3.7 0 0 1-.1 1.15c-.13.4-.2.53-.35.57-.2.05-.34-.07-.46-.39a4.74 4.74 0 0 1 0-2.1c.15-.56.44-.78.66-.53Z" fill-rule="evenodd"/><path data-name="Path 7" d="M49.59 13.4a4.03 4.03 0 0 1-.06 1.3 10.08 10.08 0 0 0-.08 1.1c0 .5 0 .55.16.76a.69.69 0 0 0 .68.33c.52 0 .88-.61.88-1.52a3.17 3.17 0 0 1 .08-.71 2.34 2.34 0 0 0 .09-.55c0-.28.05-.4.22-.47.13-.06-.13-.2-.34-.2-.17 0-.2.02-.2.1a.19.19 0 0 0 .05.14 1.88 1.88 0 0 1-.03.97 3.26 3.26 0 0 0-.08.74 1.4 1.4 0 0 1-.4 1.12c-.17.13-.2.13-.38 0-.13-.11-.14-.14-.14-.69a9.54 9.54 0 0 1 .08-1.11l.11-.86c.03-.28.05-.32.18-.37.24-.09.04-.2-.44-.22l-.43-.04.05.18Z" fill-rule="evenodd"/><path data-name="Path 8" d="M42.05 13.38a5.38 5.38 0 0 1-.64.08 1.49 1.49 0 0 0-.47.09c-.01.02.04.1.1.17a.65.65 0 0 1 .17.42l.08.86.13 1.15c.05.54.05.6-.04.66-.1.07-.12.16-.04.21a.74.74 0 0 0 .3-.03c.14-.03.5-.08.8-.1a2.34 2.34 0 0 0 .62-.12c.05-.04.07-.19.06-.53-.02-.48-.09-.59-.18-.24a1.02 1.02 0 0 1-.25.4c-.17.2-.23.22-.4.2h-.21L42 16c-.07-.61-.04-.76.13-.62a.23.23 0 0 1 .08.13.33.33 0 0 0 .12.17l.12.1-.01-.51c-.02-.7-.06-.98-.14-.96-.03.02-.08.13-.1.26-.04.26-.16.4-.27.36-.06-.02-.09-.16-.11-.5a9.06 9.06 0 0 0-.05-.59c-.02-.1.02-.1.29-.12.34-.02.46.07.52.37.05.22.15.26.2.07a1.57 1.57 0 0 0-.1-.74c-.05-.1-.3-.12-.63-.04Z" fill-rule="evenodd"/><path data-name="Path 9" d="M52.02 13.53a.46.46 0 0 0 .07.25.46.46 0 0 1 .08.26 3.42 3.42 0 0 0-.08.51 2.35 2.35 0 0 1-.13.64 1.42 1.42 0 0 0-.08.55 1.05 1.05 0 0 1-.05.41.75.75 0 0 0-.11.29 1.07 1.07 0 0 1-.18.38l-.11.12.14.05c.22.09.47.07.5-.03a.11.11 0 0 0-.05-.14c-.11-.06-.13-.58-.02-.68a1.55 1.55 0 0 0 .1-.51 3.06 3.06 0 0 1 .09-.6 2.6 2.6 0 0 0 .1-.32c.03-.21.1-.13.23.4l.2.68.18.62c.29.98.43 1.13.5.51a4.74 4.74 0 0 1 .1-.57 1.99 1.99 0 0 0 .05-.47 1.12 1.12 0 0 1 .1-.5 1.18 1.18 0 0 0 .11-.56.8.8 0 0 1 .17-.59 1.11 1.11 0 0 0 .16-.3c0-.03-.1-.07-.22-.08-.36-.05-.47.04-.29.24.07.07.08.13.03.3a2.58 2.58 0 0 0-.06.56c0 .28-.02.37-.1.45-.13.1-.22.07-.22-.09a2.3 2.3 0 0 0-.12-.47l-.19-.65c-.13-.49-.15-.5-.42-.6-.3-.11-.44-.13-.48-.06Z" fill-rule="evenodd"/><path data-name="Path 10" d="M39.81 13.75c-.3.1-.37.22-.18.3.1.04.13.11.14.25a3.99 3.99 0 0 0 .1.55 1.24 1.24 0 0 1 .06.4c-.02.04-.11.07-.2.09a2.52 2.52 0 0 0-.3.06c-.1.04-.13.02-.16-.1-.01-.1-.07-.32-.11-.5-.1-.46-.1-.7.02-.77.07-.04.08-.06.03-.12s-.13-.05-.38.03a3.52 3.52 0 0 1-.44.1c-.17.02-.22.15-.07.18a.21.21 0 0 1 .14.15c.18.86.26 1.33.38 2.1.04.3.1.56.1.58a.43.43 0 0 1-.05.25.57.57 0 0 0-.06.22.46.46 0 0 0 .2-.03 1.42 1.42 0 0 1 .38-.06 1.15 1.15 0 0 0 .29-.04c.09-.03.12-.18.03-.18-.1 0-.21-.32-.3-.86l-.08-.58a.64.64 0 0 1 .18-.04.78.78 0 0 0 .23-.09c.18-.15.29.1.4.9.04.31.04.39-.03.47-.05.05-.07.12-.05.15.08.14.9-.04.93-.22 0-.04-.04-.1-.1-.13-.1-.04-.14-.1-.16-.35-.02-.16-.07-.52-.13-.78s-.13-.67-.16-.9c-.11-.54-.12-.83-.04-.93.17-.21-.15-.26-.6-.1Z" fill-rule="evenodd"/><path data-name="Path 11" d="M54.95 14.34a2.13 2.13 0 0 0-.73.96 1.77 1.77 0 0 0-.16 1c0 .64 0 .68.16.93a.95.95 0 0 0 1.34.44c.23-.16.35-.34.27-.42-.04-.03-.14.01-.3.12-.29.2-.42.2-.64.05-.22-.17-.3-.55-.22-1.2.1-.93.42-1.58.83-1.68.29-.07.54.24.66.8.02.08.07.14.1.14.06 0 .1-.1.12-.36a3.85 3.85 0 0 1 .06-.48c.03-.1 0-.11-.1-.09s-.21-.03-.4-.17a.77.77 0 0 0-.99-.04Z" fill-rule="evenodd"/><path data-name="Path 12" d="M37.3 14.3a5.35 5.35 0 0 1-.75.25 2.32 2.32 0 0 0-.42.14c-.28.1-.29.11-.28.33 0 .51.16.66.27.28.07-.24.31-.48.4-.4a1.34 1.34 0 0 1 .11.34c.04.16.1.43.15.58.46 1.67.5 1.82.42 1.94-.13.2.05.27.4.13a2.55 2.55 0 0 1 .36-.1c.18-.05.2-.16.03-.25-.1-.05-.16-.18-.28-.61-.23-.89-.5-1.8-.57-2.06-.06-.18 0-.25.19-.25a.68.68 0 0 1 .42.34c.01.05.06.1.09.1.1 0 .12-.17.03-.3a.51.51 0 0 1-.08-.24c0-.2-.06-.28-.24-.27a.6.6 0 0 0-.25.05Z" fill-rule="evenodd"/><path data-name="Path 13" d="M56.82 14.67c-.02.03 0 .08.05.12.1.08.08.48-.05.91l-.2.78c-.23 1.02-.31 1.3-.42 1.37-.15.1-.08.21.18.28l.42.12c.16.04.22.05.27 0s.04-.07-.03-.1c-.1-.04-.12-.43-.03-.72.06-.2.15-.6.29-1.22a4.46 4.46 0 0 1 .13-.53.96.96 0 0 0 .06-.28.47.47 0 0 1 .14-.26c.17-.16.15-.29-.07-.33a4.72 4.72 0 0 1-.4-.11c-.3-.1-.3-.1-.34-.03Z" fill-rule="evenodd"/><path data-name="Path 14" d="M34.66 15.14a2.47 2.47 0 0 0-.26.1.81.81 0 0 1-.26.08.52.52 0 0 0-.2.06 2.75 2.75 0 0 1-.35.12c-.27.07-.32.14-.14.22.1.05.25.39.37.9l.1.4.17.62.18.63c.07.24.07.31 0 .42-.13.26.05.27.66.05a1.29 1.29 0 0 0 .26-.11c.01-.01-.05-.09-.15-.17a.73.73 0 0 1-.2-.32l-.14-.52c-.09-.28-.1-.38-.05-.43.09-.09.32.05.46.27a.49.49 0 0 0 .15.18c.06 0 .05-.2-.01-.32a1.57 1.57 0 0 1-.1-.33 2.5 2.5 0 0 0-.3-.83c-.03 0-.06.11-.07.26-.02.29-.1.42-.22.4a2.32 2.32 0 0 1-.31-1c-.03-.2-.02-.22.1-.25a.58.58 0 0 1 .7.19c.11.12.21.2.24.2a.68.68 0 0 0-.06-.29 1.63 1.63 0 0 1-.08-.34c0-.2-.24-.28-.5-.19Z" fill-rule="evenodd"/><path data-name="Path 15" d="M58.38 15.22c-.02.03 0 .1.05.15.07.09.07.12-.06.5l-.19.59a1.6 1.6 0 0 1-.09.24c-.03.05-.35.95-.44 1.25a.76.76 0 0 1-.19.29c-.15.15-.18.27-.05.27a1.2 1.2 0 0 1 .34.11l.41.19.42.18a.86.86 0 0 0 .35.1 1.64 1.64 0 0 0 .44-.78c0-.15-.13-.16-.21 0a.66.66 0 0 1-.54.36c-.24 0-.51-.21-.46-.36a2.56 2.56 0 0 0 .09-.26l.18-.54.2-.54a7.98 7.98 0 0 1 .3-.82.81.81 0 0 0 .07-.26c0-.04.07-.1.17-.14s.16-.09.16-.13a2.8 2.8 0 0 0-.86-.45.12.12 0 0 0-.1.05Z" fill-rule="evenodd"/><path data-name="Path 16" d="M31.6 16.35a1.45 1.45 0 0 0-.56 1.16 2.72 2.72 0 0 0 1.21 2.16c.7.29 1.38-.32 1.38-1.22a3.5 3.5 0 0 0-.25-1.06 2.2 2.2 0 0 1-.08-.22 2.28 2.28 0 0 0-.62-.72.71.71 0 0 0-.59-.21.85.85 0 0 0-.5.11Zm.65.35a2.54 2.54 0 0 1 .38.58c.57 1.2.62 2.14.11 2.14-.37 0-.99-1.15-1.12-2.1-.05-.36-.04-.44.04-.6.13-.28.33-.29.6-.02Z" fill-rule="evenodd"/><path data-name="Path 17" d="M61.78 16.67a1.67 1.67 0 0 0-1.12.97c-.56 1.02-.45 2.09.23 2.43s1.45-.23 1.86-1.37a1.72 1.72 0 0 0-.2-1.74 2.43 2.43 0 0 0-.58-.31.69.69 0 0 0-.19.02Zm.53.43a1.3 1.3 0 0 1 .04.8 5.06 5.06 0 0 1-.83 1.74c-.23.21-.41.25-.58.12-.12-.1-.13-.14-.12-.5a4 4 0 0 1 .92-2.1c.15-.14.22-.17.36-.14a.58.58 0 0 1 .2.08Z" fill-rule="evenodd"/><path data-name="Path 18" d="M29.55 17.45a.38.38 0 0 1-.18.08.24.24 0 0 0-.16.07c-.04.05-.04.09.04.17a1.56 1.56 0 0 1 .28 1.06 1.31 1.31 0 0 1-.05.49 4.43 4.43 0 0 1-.48-.46c-.41-.43-.48-.53-.44-.73 0-.09-.26-.03-.39.09a.27.27 0 0 1-.13.07.62.62 0 0 0-.21.16c-.14.14-.15.18-.08.22a.36.36 0 0 0 .15.05 8.93 8.93 0 0 1 1.52 1.54c.35.77.34.72.24.84-.08.08-.08.12-.04.17s.1.05.18 0l.43-.23c.33-.17.41-.3.2-.33-.1-.01-.18-.14-.38-.53l-.26-.51-.05-.81c-.02-.45-.06-.87-.08-.94a.5.5 0 0 1 .03-.28c.09-.2.02-.3-.14-.19Z" fill-rule="evenodd"/><path data-name="Path 19" d="M63.6 17.82a1.5 1.5 0 0 1-.2.66l-.27.6c-.55 1.24-.63 1.38-.8 1.47s-.18.15-.02.2a3.25 3.25 0 0 1 .38.2c.36.2.44.2.4-.04-.03-.15 0-.3.2-.72a1.66 1.66 0 0 1 .28-.55c.1 0 .18.12.22.37.04.26.16.3.22.07a4.85 4.85 0 0 1 .18-.47c.24-.5.2-.64-.07-.35-.16.17-.33.21-.4.1a3.9 3.9 0 0 1 .5-1.16c.04-.02.17.05.29.14.2.17.22.19.22.48a.94.94 0 0 0 .03.35c.06.06.18-.08.18-.2a.32.32 0 0 1 .08-.19.66.66 0 0 0 .11-.23c.04-.16-.05-.24-.83-.65a3.96 3.96 0 0 1-.46-.26.26.26 0 0 0-.15-.05c-.07 0-.09.04-.08.23Z" fill-rule="evenodd"/><path data-name="Path 20" d="M27.1 19a.23.23 0 0 1-.16.1 1.47 1.47 0 0 0-.62.26 1.36 1.36 0 0 0-.2.3 2.33 2.33 0 0 0 1.29 2.85 1 1 0 0 0 1.25-.9c0-.28-.04-.4-.13-.4-.05 0-.09.1-.1.25-.06.38-.12.5-.33.6-.17.08-.2.08-.4-.02a2.42 2.42 0 0 1-.73-.73 3.06 3.06 0 0 1-.51-1.33c0-.54.57-.74 1-.33.13.13.17.14.22.08s.03-.13-.12-.35a2.95 2.95 0 0 1-.22-.39c-.04-.14-.14-.14-.23 0Z" fill-rule="evenodd"/><path data-name="Path 21" d="M66.07 19.15a.12.12 0 0 0 .06.09c.09.06.06.27-.08.51l-.22.4-.19.33-.18.33a.6.6 0 0 1-.14.2.18.18 0 0 0-.06.14.26.26 0 0 1-.08.16.26.26 0 0 0-.08.18.15.15 0 0 1-.08.13.22.22 0 0 0-.1.12.33.33 0 0 1-.17.16.2.2 0 0 0-.01.37.61.61 0 0 1 .21.11c.11.1.1.1.12-.25a.7.7 0 0 1 .13-.43.63.63 0 0 0 .12-.24.23.23 0 0 1 .08-.15.23.23 0 0 0 .08-.13.5.5 0 0 1 .1-.2.5.5 0 0 0 .11-.22.24.24 0 0 1 .09-.15.26.26 0 0 0 .08-.16.1.1 0 0 1 .1-.1c.13 0 .14.04.03.45-.09.31-.15.58-.33 1.3-.13.57-.14.63-.1.63.1 0 .2-.09 1.05-.94a9.49 9.49 0 0 1 .86-.8 2.75 2.75 0 0 1-.27.55l-.38.68c-.4.71-.46.78-.63.78-.19 0-.15.13.11.3l.26.19a.89.89 0 0 0 .4.2c.02-.02 0-.09-.03-.15-.08-.15-.03-.27.44-1.08l.39-.7a2.85 2.85 0 0 1 .68-.98c.12-.04 0-.19-.28-.33-.18-.1-.3-.13-.36-.1a8.96 8.96 0 0 0-.7.68 3.33 3.33 0 0 1-.66.58.7.7 0 0 1 .04-.37 13.6 13.6 0 0 0 .26-1.02c.14-.5.12-.63-.11-.82a1.66 1.66 0 0 0-.53-.29c-.02 0-.03.01-.03.04Zm.07 1.04c-.05.05-.07.04-.07-.06s.02-.12.07-.07.04.08 0 .13Z" fill-rule="evenodd"/><path data-name="Path 22" d="M74.62 82.38a2.04 2.04 0 0 0-.21 1c-.04.67.01.83.19.6a2.47 2.47 0 0 0 .43-.8.46.46 0 0 0-.04-.47c-.15-.29-.3-.42-.37-.33Z" fill-rule="evenodd"/><path data-name="Path 23" d="M75.6 84.58a3.05 3.05 0 0 0-.51.32c-.16.13-.18.17-.12.24a1.31 1.31 0 0 0 .67.2 2.55 2.55 0 0 0 .98-.49l.2-.17-.12-.13c-.18-.2-.66-.18-1.1.03Z" fill-rule="evenodd"/><path data-name="Path 24" d="m18.13 83.28-.13.1.13.25c.2.38.5.57.7.43a.62.62 0 0 0 .02-.7.56.56 0 0 0-.72-.08Z" fill-rule="evenodd"/><path data-name="Path 25" d="M58.69 92.39a3.17 3.17 0 0 0-1.16.8 2.48 2.48 0 0 0-.42.45c0 .08.15.08.43-.02l1.3-.38c.92-.24 1.03-.3.92-.5a1.21 1.21 0 0 0-1.07-.35Z" fill-rule="evenodd"/><path data-name="Path 26" d="M34.65 93.08c-.13.07-.24.16-.24.2 0 .1.28.22.51.23.18 0 .2 0 .21-.17.02-.2-.07-.4-.17-.39a1.29 1.29 0 0 0-.3.13Z" fill-rule="evenodd"/><path data-name="Path 27" d="M24.93 20.44c-.23.16-.24.3-.04.32s.39.26.54.62a.36.36 0 0 0 .14.17.15.15 0 0 1 .07.14.16.16 0 0 0 .08.13.13.13 0 0 1 .08.11c0 .1-.19.12-.24.03a.6.6 0 0 0-.21-.14c-.1-.04-.26-.13-.38-.2a6.42 6.42 0 0 0-.9-.47 2.08 2.08 0 0 0-.59.45c0 .02.08.07.18.1a1.22 1.22 0 0 1 .47.5 1.78 1.78 0 0 0 .19.3 1.5 1.5 0 0 1 .19.32.24.24 0 0 0 .07.12 1.86 1.86 0 0 1 .3.47.25.25 0 0 0 .08.13 1.05 1.05 0 0 1 .28.72c-.05.24.05.24.34-.01.26-.23.29-.35.08-.35a.35.35 0 0 1-.36-.25.27.27 0 0 0-.12-.15.16.16 0 0 1-.08-.14.16.16 0 0 0-.08-.14.14.14 0 0 1-.08-.1.47.47 0 0 0-.1-.19.48.48 0 0 1-.12-.17 1.91 1.91 0 0 0-.3-.46c-.08-.08-.07-.2.02-.2a21.64 21.64 0 0 1 1.45.8l.49.28c.31.2.35.2.41.14s.03-.15-.28-.63a10.15 10.15 0 0 1-.47-.73 1.19 1.19 0 0 1-.18-.33.31.31 0 0 0-.1-.17.3.3 0 0 1-.11-.17c0-.04-.03-.08-.06-.08s-.06-.06-.08-.13a.3.3 0 0 0-.12-.18.41.41 0 0 1-.1-.29l-.02-.28c-.01-.07-.14-.04-.34.11Z" fill-rule="evenodd"/><path data-name="Path 28" d="M68.85 21.15a.14.14 0 0 0 .03.14c.07.09 0 .22-.76 1.37-.22.34-.42.67-.44.72a1.41 1.41 0 0 1-.26.3c-.23.23-.27.37-.12.42a1.94 1.94 0 0 1 .31.22c.25.2.3.18.3-.06a.78.78 0 0 1 .13-.35l.43-.68c.95-1.48.97-1.5 1.12-1.45h.1a.67.67 0 0 0-.16-.3 1.42 1.42 0 0 1-.28-.2c-.25-.19-.34-.22-.4-.13Z" fill-rule="evenodd"/><path data-name="Path 29" d="M22.47 22.38c-.29.23-.6.48-.68.57l-.15.15.14.05a1.69 1.69 0 0 0 .2.06 9.92 9.92 0 0 1 .82 1.13c.65 1 .75 1.16.72 1.32-.01.17 0 .17.1.13a.88.88 0 0 0 .24-.15c.05-.05.32-.27.59-.47.43-.34.48-.39.48-.55a.55.55 0 0 0-.1-.32.5.5 0 0 1-.1-.24.15.15 0 0 0-.12-.13c-.06-.01-.1-.06-.1-.08s-.03-.05-.07-.05-.05.01 0 .06a.97.97 0 0 1 .07.45c0 .32-.03.4-.13.52-.17.2-.32.24-.43.12a4.82 4.82 0 0 1-.58-.91c0-.12.2-.09.37.06.32.27.38.12.1-.26a1.87 1.87 0 0 1-.2-.28 2.05 2.05 0 0 0-.34-.47c-.12-.08-.13-.05-.08.23s.03.43-.05.43a4.89 4.89 0 0 1-.66-1c0-.1.3-.3.46-.3a.72.72 0 0 1 .35.16 1.47 1.47 0 0 0 .23.17c.16 0-.3-.8-.46-.81a2.88 2.88 0 0 0-.62.4Z" fill-rule="evenodd"/><path data-name="Path 30" d="M70.12 22.26c0 .19-.03.25-.47.82l-.18.22a5.35 5.35 0 0 0-.48.63.52.52 0 0 1-.1.13c-.5.54-.52.55-.64.52-.14-.03-.15-.02-.07.15s.36.38.43.34a.36.36 0 0 0 .05-.23c0-.15.07-.28.38-.67a3.07 3.07 0 0 0 .38-.53.05.05 0 0 1 .05-.06.72.72 0 0 0 .2-.24c.14-.2.18-.23.23-.17s.04.2-.04.58a56.68 56.68 0 0 0-.41 2.08c-.03.1-.02.13.04.13.13 0 .26-.14.77-.81l.56-.72a3.2 3.2 0 0 0 .35-.45c.16-.25.36-.38.5-.32s.04-.24-.13-.39c-.2-.17-.26-.15-.3.12a.71.71 0 0 1-.08.3 7.2 7.2 0 0 0-.52.67c-.27.38-.35.33-.23-.14.05-.19.1-.46.12-.61a4.45 4.45 0 0 1 .11-.53c.12-.43.1-.53-.15-.78-.3-.28-.37-.29-.37-.04Z" fill-rule="evenodd"/><path data-name="Path 31" d="M72.12 24.08c0 .13-.18.34-1.23 1.5-.46.52-.65.7-.76.7-.08.02-.14.05-.14.09 0 .1.6.73.67.7a.32.32 0 0 0 .05-.21c0-.18.03-.21 1.6-1.94.17-.18.28-.26.38-.26.16 0 .17-.05.01-.22l-.27-.3c-.18-.21-.31-.23-.31-.06Z" fill-rule="evenodd"/><path data-name="Path 32" d="M20.65 24.22a4.38 4.38 0 0 0-.95.96c0 .04.06.07.13.07.13 0 .31.18 1.49 1.5.42.48.49.59.49.75v.19l.16-.09c.1-.05.16-.1.16-.12a1.74 1.74 0 0 1 .26-.31 1.28 1.28 0 0 0 .5-1.03 2.27 2.27 0 0 0-.93-1.63 1.22 1.22 0 0 0-1.31-.3Zm.92.83a2.39 2.39 0 0 1 .89 1.39c0 .59-.14.53-1.05-.5-.42-.48-.81-.91-.86-.95-.13-.11-.11-.27.05-.35.23-.11.54.02.96.4Z" fill-rule="evenodd"/><path data-name="Path 33" d="M72.88 25.2a1.52 1.52 0 0 0-.59.57c-.13.2-.14.23-.13 1.03l.01.82-.14.14c-.19.17-.36.18-.5.03-.1-.1-.12-.16-.1-.5a1 1 0 0 1 .12-.47c.1-.12.11-.27 0-.27a.28.28 0 0 0-.15.12 3.44 3.44 0 0 1-.3.36 1.21 1.21 0 0 0-.22.3c0 .03.08.11.16.18a.39.39 0 0 1 .17.23.59.59 0 0 0 .2.29.52.52 0 0 0 .4.19 1.32 1.32 0 0 0 1.03-.8 2.3 2.3 0 0 0 .03-1.15 1.09 1.09 0 0 1-.02-.4c.03-.22.25-.46.4-.46s.34.3.3.51c-.06.39-.1.52-.17.58-.1.07-.1.15-.01.15a1.67 1.67 0 0 0 .58-.68.45.45 0 0 0-.1-.24 1.03 1.03 0 0 1-.13-.25.63.63 0 0 0-.84-.27Z" fill-rule="evenodd"/><path data-name="Path 34" d="M19.14 25.78a10 10 0 0 1-.31.33c-.1.09-.13.22-.06.23a1.41 1.41 0 0 0 .18.02 11.49 11.49 0 0 1 2 2.07c0 .22.15.2.36-.05l.3-.33c.15-.16.12-.25-.1-.24-.16 0-.22-.04-.5-.31-.16-.18-.56-.6-.89-.93-.48-.5-.6-.64-.62-.8-.02-.12-.06-.21-.09-.22s-.16.1-.27.23Z" fill-rule="evenodd"/><path data-name="Path 35" d="M74.2 26.69a1.24 1.24 0 0 0-.25.3c0 .07.13.06.2 0 .14-.15.61-.05.61.13A20.08 20.08 0 0 1 73 28.85c-.2.15-.28.2-.4.16h-.15a1.1 1.1 0 0 0 .25.41 1.32 1.32 0 0 1 .2.27c.1.17.22.16.24-.01.02-.14.18-.3 1.69-1.71a1.46 1.46 0 0 1 .36-.28c.18 0 .21.55.04.7-.1.09-.1.16.02.16a1.01 1.01 0 0 0 .32-.23c.2-.2.23-.25.18-.36a10.35 10.35 0 0 0-1.2-1.5.83.83 0 0 0-.33.23Z" fill-rule="evenodd"/><path data-name="Path 36" d="M18.31 26.83a1.11 1.11 0 0 1-.27.22.85.85 0 0 0-.28.31c-.1.22-.11.23-.02.5a1.51 1.51 0 0 0 .62.78 1.37 1.37 0 0 0 1.07.05.63.63 0 0 1 .67.09c.12.08.14.14.14.33 0 .29-.04.34-.27.39-.21.03-.64-.06-.64-.14s-.2-.07-.24 0a3.25 3.25 0 0 0 .71.76c.02 0 .08-.08.13-.16a.51.51 0 0 1 .22-.21.9.9 0 0 0 .42-.5c.06-.14.05-.2-.03-.47a1.2 1.2 0 0 0-1.48-.88 2.37 2.37 0 0 1-.51.07c-.27.01-.33 0-.42-.11a.56.56 0 0 1-.1-.32c0-.15.03-.2.18-.26a.86.86 0 0 1 .75.13c.09.07.1.07.13 0 .02-.06-.07-.2-.27-.39a1.84 1.84 0 0 0-.35-.3.42.42 0 0 0-.16.11Z" fill-rule="evenodd"/><path data-name="Path 37" d="m16.71 28.7-.5.7c-.29.42-.3.5-.06.5.14 0 .28.1.77.52l1.01.87c.45.38.51.51.31.69-.1.1-.14.1-.45.03a6.73 6.73 0 0 0-.63-.1c-.38-.05-.43-.09-.43-.3a1.08 1.08 0 0 0-.8-.9.5.5 0 0 0-.44.02 1.02 1.02 0 0 0-.33.27 3.2 3.2 0 0 0-.37.56 1.31 1.31 0 0 1-.17.24c-.2.25-.18.4.05.34.14-.03.27.06 1.15.73.54.42 1.02.8 1.06.85a.33.33 0 0 1 .05.22c-.03.16.05.2.18.1a2.83 2.83 0 0 0 .48-.8c0-.07-.04-.08-.16-.06s-.2 0-.39-.15l-.43-.31c-.11-.07-.2-.15-.2-.18 0-.07.44-.03 1.04.1l.48.1.13-.17a2.91 2.91 0 0 0 .24-.36 1.41 1.41 0 0 1 .21-.32c.12-.13.58-.76.67-.92l.2-.3c.2-.26.18-.3-.25-.7-.3-.3-.43-.34-.3-.1a2.34 2.34 0 0 1 .22.63c0 .18-.24.54-.36.54a4.5 4.5 0 0 1-.88-.7.2.2 0 0 1 .06-.1c.07-.07.4 0 .54.13.13.1.18-.02.06-.18-.05-.07-.11-.13-.14-.13a.38.38 0 0 1-.13-.1 5 5 0 0 0-.86-.66c-.12 0-.09.1.09.28s.23.5.08.47a2.97 2.97 0 0 1-.84-.76.52.52 0 0 1 .17-.27c.18-.16.26-.17.63-.06.09.02.13 0 .16-.07s0-.1-.03-.12a.56.56 0 0 1-.17-.11 2.29 2.29 0 0 0-.45-.33 2.64 2.64 0 0 0-.27.36Zm-.93 2.61c.37.25.52.43.52.64 0 .28-.17.41-.33.25a.88.88 0 0 0-.16-.12 3.07 3.07 0 0 1-.64-.57c0-.09.26-.32.35-.32a.64.64 0 0 1 .26.12Z" fill-rule="evenodd"/><path data-name="Path 38" d="M75.96 28.52c.03.15-.02.21-.87.95-1.14.98-1.12.97-1.33.97-.24 0-.23.06.05.43l.3.43c.32.46.52.7.6.7.16 0 .8-.5.73-.58-.02-.02-.06 0-.1.03a.8.8 0 0 1-.38.06c-.3 0-.33 0-.5-.2a.78.78 0 0 1-.18-.26 4.49 4.49 0 0 1 .91-.83c.12 0 .12.15 0 .37-.06.12-.14.22-.16.22s-.05.04-.05.08c0 .15.13.08.6-.32.63-.51.82-.76.48-.59a1.4 1.4 0 0 1-.35.11c-.26.05-.31-.1-.1-.27l.45-.37.3-.26.12.15a.61.61 0 0 1 .08.73c-.13.23-.14.31-.04.31a1.5 1.5 0 0 0 .57-.55 1.2 1.2 0 0 0-.2-.36l-.4-.55c-.33-.49-.58-.67-.53-.4Z" fill-rule="evenodd"/><circle data-name="Ellipse 5" cx=".05" cy=".05" r=".05" transform="translate(0 29.36)"/><path data-name="Path 39" d="M77.38 30.61c-.04.14-.21.3-.77.72-1.45 1.1-1.4 1.06-1.57 1.02-.2-.04-.21 0-.03.27a1.15 1.15 0 0 1 .13.23c0 .06.29.39.33.37a.35.35 0 0 0 .07-.18c.02-.1.14-.25.4-.46a2.27 2.27 0 0 1 .43-.3c.1 0 .11.14.04.24-.03.06-.2.35-.35.65-.32.6-.33.7-.08.99.16.2.3.21.3.05a4.2 4.2 0 0 1 .3-.74l.32-.61.22.03a1.56 1.56 0 0 0 .4 0 1.35 1.35 0 0 0 .8-.93 3.34 3.34 0 0 0-.5-1.06 3.05 3.05 0 0 1-.25-.42c0-.02-.03-.04-.07-.04s-.1.08-.12.17Zm.42.78c.16.15.12.4-.1.63a1.1 1.1 0 0 1-.63.36.46.46 0 0 1-.36-.33c0-.06.02-.1.05-.1a3.15 3.15 0 0 0 .47-.33 4.88 4.88 0 0 1 .44-.32.4.4 0 0 1 .13.1Z" fill-rule="evenodd"/><path data-name="Path 40" d="M13.98 33.06a2.05 2.05 0 0 0-.3.42c-.04.09-.13.27-.21.39-.12.19-.13.23-.06.29a.1.1 0 0 0 .15 0c.1-.08.2-.02 1.32.73.89.6 1.03.72 1.07.9.04.2.16.2.24 0a3.67 3.67 0 0 1 .19-.38c.19-.33.18-.44-.02-.4-.13.03-.25-.02-.62-.28a2.93 2.93 0 0 1-.47-.34.39.39 0 0 1 .09-.12.92.92 0 0 0 .11-.41.86.86 0 0 0-.4-.86.69.69 0 0 0-.55-.18c-.3 0-.31 0-.54.24Zm.77.48a.8.8 0 0 1 .36.53c0 .13-.15.14-.33.01l-.8-.55c-.03-.02.02-.06.08-.11.15-.1.42-.06.69.13Z" fill-rule="evenodd"/><path data-name="Path 41" d="M78.44 32.96a1.52 1.52 0 0 0-.46.31 1.66 1.66 0 0 0-.4 1.23c0 .42-.16.68-.43.76-.42.12-.59-.34-.3-.85a1.27 1.27 0 0 1 .19-.27c.07-.05.06-.2-.02-.2a1.03 1.03 0 0 0-.3.2 1.03 1.03 0 0 1-.28.18c-.03 0-.1.06-.15.14-.08.13-.08.14.03.22a.3.3 0 0 1 .11.27.77.77 0 0 0 .83.7 1.5 1.5 0 0 0 .97-.76 3 3 0 0 0 .11-.7 1.38 1.38 0 0 1 .18-.74c.1-.17.16-.2.3-.2s.2.03.27.17c.1.18.1.2.01.43a1 1 0 0 1-.16.3.21.21 0 0 0-.08.15c0 .05-.03.08-.06.08s-.05.01-.04.03c.1.1.8-.39.8-.53a.22.22 0 0 0-.08-.14.26.26 0 0 1-.08-.18.76.76 0 0 0-.43-.6c-.25-.1-.23-.1-.53 0Z" fill-rule="evenodd"/></g><path data-name="Path 42" d="m101.7 48-.1-1.08a41.7 41.7 0 0 0-.57-4.1c0-.08-.07-.33-.1-.54s-.13-.56-.17-.78a37.58 37.58 0 0 0-.83-3.32c-.07-.2-.14-.47-.17-.58-.06-.25-.57-1.77-.86-2.58l-.27-.75-.27-.68-.28-.69c-.03-.09-.08-.14-.1-.13a1.71 1.71 0 0 0-.25.36 34.41 34.41 0 0 1-.76 1.35l-.29.53-.48.86c-.53.98-.59 1.04-.97 1.19l-.51.2a21.65 21.65 0 0 1-1.4.57c-.06.02-.27.1-.46.19s-.4.16-.46.18l-.39.16-1.02.41-.4.17-.45.18-.44.18c-.77.3-.83.34-.83.45a.23.23 0 0 0 .05.16l3.64-1.2h.03a.53.53 0 0 1 .18-.07l.15-.04.13-.05a.13.13 0 0 1 .14-.06l.33-.12a.16.16 0 0 1 .06-.03.14.14 0 0 1 .04 0l2.04-.78-5.51 3.1a6.5 6.5 0 0 0-.82.46c-.03.03 0 .22.07.5a37.8 37.8 0 0 1 1.4 9.8 38.54 38.54 0 0 1-1.59 11.59c-.16.55-.68 2.1-.75 2.27a.92.92 0 0 0-.08.21 15.38 15.38 0 0 1-.67 1.7 35.81 35.81 0 0 1-2.26 4.44c-.41.72-.42.73-.55.93a38.92 38.92 0 0 1-6.2 7.55 38.1 38.1 0 0 1-6.11 4.76c-.2.13-.22.14-.93.55a50.4 50.4 0 0 0-.99.57l-.67.36c-.47.26-.56.3-1.33.66a36.44 36.44 0 0 1-3.15 1.34.92.92 0 0 0-.21.08c-.17.07-1.72.59-2.28.75a38.56 38.56 0 0 1-11.58 1.58 37.95 37.95 0 0 1-9.85-1.4c-1-.27-2.84-.87-3.34-1.09l-.5-.2-.48-.18-.51-.22a51.35 51.35 0 0 1-5.1-2.63l-.36-.24a3.06 3.06 0 0 0-.28-.18 41.3 41.3 0 0 1-2.92-2.07 34.46 34.46 0 0 1-3.54-3.16 35.06 35.06 0 0 1-3.16-3.54 44.14 44.14 0 0 1-2.1-2.95l-.41-.68c-.35-.55-.44-.7-.74-1.25l-.3-.54a59.84 59.84 0 0 1-1.44-2.95c-.14-.3-.53-1.25-.6-1.45a2.4 2.4 0 0 0-.1-.27l-.12-.33-.22-.62a34.97 34.97 0 0 1-1.18-4.08 40.04 40.04 0 0 1-.89-5.72 47.92 47.92 0 0 1 0-6.1 34.22 34.22 0 0 1 .47-3.69 3.02 3.02 0 0 1 .08-.43 2.04 2.04 0 0 0 .08-.37 26.12 26.12 0 0 1 .65-2.76 1.6 1.6 0 0 0 .09-.51.24.24 0 0 0-.08-.11 2.05 2.05 0 0 0-.37-.23l-.93-.49-.03-.01-5.1-2.72 6.37 2.23c.48.19.47.18.57.03s.1-.16-.03-.25a2.82 2.82 0 0 0-.5-.24l-.6-.24a25.03 25.03 0 0 0-1.49-.6l-.6-.24-.67-.27-.46-.19-.46-.2-.68-.26-.72-.3-.31-.12c-.1-.03-.23-.23-.52-.74a36 36 0 0 0-.79-1.42c-.32-.59-.44-.8-.71-1.26a4.07 4.07 0 0 1-.3-.54c0-.07-.2-.29-.25-.29-.03 0-.07.06-.1.12a6.43 6.43 0 0 1-.26.72l-.2.48-.16.44a58.56 58.56 0 0 0-1.32 4.02l-.16.6-.19.72c-.07.27-.14.62-.19.78a30.14 30.14 0 0 0-.43 2.05 46.73 46.73 0 0 0-.84 7.7c-.05 1.69.01 4.7.1 5.54.04.27.09.77.12 1.11a47.37 47.37 0 0 0 1.98 9.83l.28.81c.23.7.56 1.68.65 1.86l.16.44c.2.54.73 1.82 1.07 2.56a98.95 98.95 0 0 0 2.01 3.97l.37.65.2.32.16.28.26.43c.18.3 1.75 2.66 1.94 2.9a49.02 49.02 0 0 0 5.28 6.18 45.22 45.22 0 0 0 5.18 4.52l1.09.83c.25.2 2.25 1.53 2.67 1.79a25.74 25.74 0 0 0 1.18.7l.5.3.55.3a52.14 52.14 0 0 0 6.58 3.03 67.82 67.82 0 0 0 3.94 1.29c.83.24 2.15.57 3.08.76l.78.16.73.14a48.48 48.48 0 0 0 7.21.76 50.44 50.44 0 0 0 10.28-.68l.62-.11.54-.1a48.9 48.9 0 0 0 6.76-1.84.91.91 0 0 1 .21-.08 3.16 3.16 0 0 0 .35-.11 45.42 45.42 0 0 0 1.86-.73l.92-.4a47.93 47.93 0 0 0 4.34-2.12l.44-.24c.73-.4 1.38-.8 2.2-1.34l1.67-1.1a33.29 33.29 0 0 0 2.21-1.62c.57-.4 2.48-2.05 3.65-3.16a50.9 50.9 0 0 0 6.68-7.76l1.05-1.56.25-.4a61.47 61.47 0 0 0 1.38-2.34c.38-.68 1.13-2.15 1.49-2.92l.32-.7.41-.94.3-.7.55-1.38.18-.48a77.1 77.1 0 0 0 1.12-3.51c.2-.68.56-2.13.74-3.02l.17-.79c.05-.2.09-.45.1-.54l.11-.62a44.41 44.41 0 0 0 .68-6.76 55.9 55.9 0 0 0-.1-5.74ZM48.06 93.64a.97.97 0 0 1 .32.23.76.76 0 0 1 .22.3 1.09 1.09 0 0 1-.54.45 1.25 1.25 0 0 1-.54-.44 1.33 1.33 0 0 1 .54-.54Zm-17.1-6.1c.33-.14.4-.13.53.05a.62.62 0 0 1 .1.21.67.67 0 0 0 .15.23c.13.15.15.16.44.13l.3-.03.2.35c.23.4.23.4-.21.56-.36.1-.4.09-.63-.34l-.18-.32-.33-.01a.58.58 0 0 1-.5-.27c-.2-.34-.18-.44.12-.56Zm-8.27-6.96.41.01c.3.01.43.04.46.1a3.17 3.17 0 0 1 .17.68c.01.1-.03.11-.36.14a1.04 1.04 0 0 1-.43-.01 2.14 2.14 0 0 1-.25-.77ZM6.04 42.12a4.13 4.13 0 0 1 .44-1.02 4.43 4.43 0 0 1 .47-.28 7.52 7.52 0 0 0 .86-.5c.31-.2.4-.2 1.04-.06l.85.19.66.14c.2.04.29.08.29.14a3.94 3.94 0 0 1-.99.66 6.37 6.37 0 0 0-1.1.74 7.87 7.87 0 0 0-.8 2.58c-.05.42-.06.44-.27.65a9.17 9.17 0 0 1-1.24 1 1.44 1.44 0 0 1-.33-.37c-.5-.66-.57-.79-.57-1.01 0-.2.5-2.3.69-2.86ZM4.57 52.1a31.8 31.8 0 0 1 .21-3.51c.09-.4.13-.45.68-.9l.92-.78.7-.62c.94-.8 1.23-1.13 1.35-1.42a1.95 1.95 0 0 0 .1-.44 3.9 3.9 0 0 1 .15-.63c.07-.27.2-.72.26-1 .11-.4.17-.54.28-.63a1.5 1.5 0 0 1 .19-.13 12.43 12.43 0 0 0 1.15-.7.17.17 0 0 1 .24-.01 2.42 2.42 0 0 1 .34.93 3.81 3.81 0 0 1-.28 1.91 5.66 5.66 0 0 0-.28.81 2.34 2.34 0 0 1-.85 1.44c-.31.31-1 .92-1.5 1.34a8.84 8.84 0 0 0-1.04.96 8.4 8.4 0 0 0-.28 2.85c.06.2.05.22-.14.46-.83 1.04-1.05 1.3-1.1 1.28a7.62 7.62 0 0 1-.55-.51c-.4-.4-.53-.56-.55-.7Zm.77 7.54c-.37-.27-.45-.47-.52-1.35l-.11-1c-.03-.2-.06-.74-.06-1.2 0-.92-.05-.8.6-1.52l.7-.84.9-1.12c.52-.64.57-.7.64-1.05A15.49 15.49 0 0 0 7.62 50l.06-1.18.17-.17a13.53 13.53 0 0 1 1.36-1.1.27.27 0 0 1 .15.09 3.46 3.46 0 0 1 .53 1.03 2.42 2.42 0 0 1 0 .86c-.03.32-.07.9-.08 1.28a2.76 2.76 0 0 1-.4 1.6c-.11.16-.69.89-1.29 1.6-.9 1.1-1.1 1.36-1.12 1.54a14.23 14.23 0 0 0 .12 2.55c.17.6.18.55-.3 1.3l-.26.44a1.32 1.32 0 0 1-.26.37 3.06 3.06 0 0 1-.96-.57Zm1.99 6.86c-.43-.19-.55-.26-.68-.45a.82.82 0 0 1-.16-.32.89.89 0 0 0-.08-.27 13.6 13.6 0 0 1-.38-1.26l-.18-.62a4.34 4.34 0 0 1-.23-1.03 2.48 2.48 0 0 1 .5-1.05l.26-.46c.07-.14.16-.28.2-.32s.12-.2.2-.35l.27-.49.73-1.35c.1-.2.1-.31-.01-1.5l-.13-1.34-.03-.36.6-.73c.33-.4.61-.73.63-.73a2.3 2.3 0 0 1 .3.25 2.68 2.68 0 0 1 .73 1.28 17.18 17.18 0 0 1 .07 3.08 21.92 21.92 0 0 1-1.44 2.6l-.18.32-.19.32c-.21.36-.19.7.17 1.94a6.01 6.01 0 0 0 .38 1.05c.13.28.14.3.05.54a6.84 6.84 0 0 1-.3.82 1.91 1.91 0 0 0-.1.3 1.07 1.07 0 0 1-.16.34l-.1.12-.32-.14-.42-.2Zm4.1 4.98-.2.86a2.21 2.21 0 0 1-.14.52c-.09 0-.82-.17-1.15-.27-.4-.12-.45-.17-.8-.83l-.37-.68c-.74-1.31-1.05-2.15-.88-2.34a3.63 3.63 0 0 0 .2-.46 4.64 4.64 0 0 1 .19-.46 1.1 1.1 0 0 0 .1-.25c.06-.2.15-.47.46-1.32.53-1.44.53-1.45.35-2.06L9 63.55c-.15-.52-.3-1.02-.38-1.23a.6.6 0 0 1 0-.57l.49-.8a3.66 3.66 0 0 1 .48-.71 2.4 2.4 0 0 1 .47.34 1.9 1.9 0 0 1 .72.93c.03.16.22.84.38 1.37a4.61 4.61 0 0 1 .28 1.27 1.92 1.92 0 0 1-.14.9l-.24.67-.19.48-.2.5a.9.9 0 0 0-.07.23.9.9 0 0 1-.09.23 8.62 8.62 0 0 0-.3.85c-.13.43.06 1 .77 2.22a3.4 3.4 0 0 0 .4.59c.15.14.16.2.05.66Zm.2 1.26.07-.33.1-.7c.17-1.01.18-1.1.11-1.3a1.9 1.9 0 0 0-.2-.43l-.3-.54-.47-.84-.3-.52.1-.3a28.1 28.1 0 0 1 .4-1.07c.1-.31.2-.49.31-.49a.17.17 0 0 1 .13.05 2.11 2.11 0 0 0 .34.2 2.63 2.63 0 0 1 1.17 1.33c.96 1.98.94 1.9.85 2.8-.07.66.07.5-1.26 1.55-.9.72-1.1.83-1.05.6Zm1.5 5.2a.22.22 0 0 0-.11.08c-.15.19-.16-.03-.02-.54a6.44 6.44 0 0 0 .24-1.08c0-.11-.41-.5-1.03-.96-.38-.3-.3-.33.73-.4a4.46 4.46 0 0 0 .7-.07.58.58 0 0 0 .2-.3l.18-.42a.83.83 0 0 0 .08-.2 1.15 1.15 0 0 1 .1-.28l.13-.33c.06-.16.15-.03.36.5l.3.74c.14.31.13.3.94.37.7.06.92.1.92.16a1.45 1.45 0 0 1-.37.34c-.2.15-.49.4-.64.54l-.28.26.05.24.2.84a1.96 1.96 0 0 1 .12.64c-.03.03-.14-.02-.26-.11a2.04 2.04 0 0 0-.28-.2 8.35 8.35 0 0 1-.5-.3 3.03 3.03 0 0 0-.49-.28 6 6 0 0 0-1 .6 1.56 1.56 0 0 1-.27.15Zm2.22 5.26c-.3-.05-.31-.07-.33-.57 0-.2 0-.2-.25-.24-.3-.04-.4-.17-.4-.55v-.28h.18a1.76 1.76 0 0 1 .31.05c.12.03.14.07.17.35.06.45.07.46.3.46.26 0 .32.06.36.41s-.02.42-.34.37Zm3.26-.08a2.7 2.7 0 0 1-1.15-.01 4.74 4.74 0 0 1-2.1-2.01 1.52 1.52 0 0 1 0-1.23 1.95 1.95 0 0 1 .9-.69 4.17 4.17 0 0 1 2.02-.1c.16.09.01.13-.52.15a1.87 1.87 0 0 0-.96.17.98.98 0 0 0-.52 1.1 2.16 2.16 0 0 0 .67 1.29 4.39 4.39 0 0 0 1.22 1c.18-.07.14-.84-.05-1.07a1.68 1.68 0 0 1-.34-.67c.03-.05.14-.09.3-.11l.5-.08c.19-.04.25-.03.34.04l.8.99c.38.49.93 1.16 1.23 1.46.51.54.54.55.62.45a2.63 2.63 0 0 0 .38-.91c.05-.3.13-.4.4-.44l.37-.09c.36-.1.4.02.22.56a2.36 2.36 0 0 1-.87 1.27 4.23 4.23 0 0 1-1.11.61 7.57 7.57 0 0 1-.9-.9c-.9-1-.74-.92-1.45-.78ZM23 88a2.13 2.13 0 0 1-1.03.2c-.45.01-.54 0-.71-.11a3.46 3.46 0 0 1-.8-.84l-.18-.33a2.92 2.92 0 0 1-.41-.84c0-.2.16-.1.4.27.42.63.73.8 1.79.95a3.2 3.2 0 0 0 1.46-.06c.34-.1.73-.42.62-.52-.04-.05-.1-.04-.25.03a.83.83 0 0 1-.87-.07c-.29-.2-.4-.37-.4-.58 0-.27.09-.43.4-.74a1.35 1.35 0 0 1 .63-.4 2.33 2.33 0 0 1 1.52-.12c.36.2.17 1.18-.37 1.89a4.3 4.3 0 0 1-1.8 1.27Zm13.67 6.17a4.63 4.63 0 0 1-.58.87c-.13.11-.39.04-1.15-.3a.8.8 0 0 0-.23-.08.65.65 0 0 1-.2-.07l-.47-.23c-.3-.15-.33-.17-.45-.48a1.99 1.99 0 0 1-.12-.48c0-.22-.14-.23-.57-.01l-.4.2-.28-.16c-.25-.13-.53-.28-1.48-.75a.86.86 0 0 1-.56-.76.42.42 0 0 0-.06-.25c-.03-.02-.16.01-.27.07a.93.93 0 0 1-.32.12 11.91 11.91 0 0 1-1.64-1.03 1.51 1.51 0 0 0-.36-.22 1.26 1.26 0 0 1-.59-.49c-.06-.18-.1-.2-.29-.05a4.18 4.18 0 0 1-1.92.65c-.63 0-.87-.21-1.37-1.2-.29-.56-.38-.9-.26-.9.03 0 .1.09.16.2a1.38 1.38 0 0 0 1.32.87 4.53 4.53 0 0 0 1.81-.16c.26-.12.32-.27.36-.88l.04-.45.3-.12a3.65 3.65 0 0 0 .39-.17c.16-.1.18-.01.17.59-.02.77.04.99.3 1.15.13.07.58.37 1.02.66l1.03.69a.9.9 0 0 0 .34.15c.06 0 .2-.14.36-.36.25-.33.3-.38.6-.47.51-.15.55-.1.22.32-.39.48-.48.63-.48.77 0 .24.17.35 1.67 1.13.54.28.6.24.42-.23-.43-1.21-.54-1.53-.6-1.74l-.05-.24.46-.46.47-.45.26.03c.25.04.5.08 1.66.3l.73.12a.16.16 0 0 1 .15.11 1.31 1.31 0 0 1-.47.63 2.82 2.82 0 0 1-1.11-.16l-1.07-.24c-.1-.02-.16 0-.18.04a22.12 22.12 0 0 0 1.08 3.15 1.7 1.7 0 0 0 .44.23l.49.2c.6.26.58.26.7.1a5.85 5.85 0 0 0 .46-1.68c.13-.66.13-.83.02-1.05-.05-.1-.07-.18-.04-.2l.37-.32c.38-.32.49-.34.54-.12a4.41 4.41 0 0 0 .61 1.01c.07.1.11.2.1.22a2.87 2.87 0 0 1-.47.31c-.34.2-.45.3-.52.45a8.67 8.67 0 0 0-.34 1.22 1.95 1.95 0 0 1-.14.4Zm1.99 3.94c-.13.1-.2.11-.47.09a3.25 3.25 0 0 0-1.08.1l-.16.05.14-.12a1.13 1.13 0 0 1 .28-.18c.19-.07.19-.13-.01-.23-.23-.11-.28-.24-.2-.43.23-.52 1-.85 1.31-.56.15.14.16.25.03.38a.23.23 0 0 1-.38 0c-.08-.14-.48-.16-.53-.04-.07.18.29.41.91.6.17.06.31.13.31.17s-.07.12-.15.17Zm4.12-5.04c-.32.27-.38.3-.54.27s-.18-.02-.21.12a2.97 2.97 0 0 1-.65.93l-.27.29v.63a2.12 2.12 0 0 1-.1.82l-.18.4c-.09.21-.19.24-.56.1s-1.35-.4-1.6-.45a1.77 1.77 0 0 1-.4-.14c-.14-.07-.16-.11-.16-.3a2.6 2.6 0 0 1 .29-.98c.08-.05.16 0 .26.17s.24.22.56.16a2.43 2.43 0 0 0 1.1-.52.47.47 0 0 0-.04-.16c-.04-.05-.13-.26-.22-.46a3.14 3.14 0 0 0-.34-.55c-.16-.18-.17-.2-.27-.1a.23.23 0 0 1-.14.07 7.45 7.45 0 0 1-.51-.52c-.44-.45-.47-.5-.47-.71a1.02 1.02 0 0 1 .16-.5 2 2 0 0 1 .55-.7 1.68 1.68 0 0 1 .37.31 7.01 7.01 0 0 1 1.37 2.46c.13.37.2.4.36.16a3.27 3.27 0 0 0 .4-.86c.08-.3.09-.36.03-.5l-.08-.18.42-.4a2.26 2.26 0 0 1 .47-.38.47.47 0 0 1 .13.22 1.7 1.7 0 0 0 .34.49.97.97 0 0 1 .28.4c0 .06-.13.21-.36.4Zm1.37 1.49a7.35 7.35 0 0 1-.63 2.32c-.16.29-.45.6-.5.55a1.72 1.72 0 0 1 .03-.52l.19-1.38a21 21 0 0 1 .26-1.96 5.62 5.62 0 0 1 .88-.9.05.05 0 0 1 .05.05c0 .08-.14.97-.28 1.84Zm6.03 3.03-.14.37a1.48 1.48 0 0 1-1.1 1.06A3.08 3.08 0 0 1 46.3 99a1.33 1.33 0 0 1-.51-.95c0-.6.63-2.08.9-2.08.11 0 .09.12-.11.52-.24.48-.27.67-.16.98a.97.97 0 0 0 .69.66 3.2 3.2 0 0 0 2.52-.29c.14-.13.16-.17.13-.35a4.63 4.63 0 0 0-.28-1c-.23-.6-.23-.63.04-1 .23-.33.3-.38.41-.26a4.3 4.3 0 0 1 .36 1.16 1.94 1.94 0 0 1-.1 1.2Zm.97.07-.11-1.47c-.04-.44-.08-1.03-.08-1.32v-.54l.3-.46c.16-.25.33-.45.36-.43a2.94 2.94 0 0 1 .11.99c.02.53.03 1.41.02 1.96a3.17 3.17 0 0 1-.35 1.8c-.16.27-.21.18-.25-.53Zm6.63 2.46a1.26 1.26 0 0 1-.37-.14 1.55 1.55 0 0 0-.35-.13.7.7 0 0 0-.28.2l-.2.19-.26-.1c-.33-.12-.5-.24-.5-.32a1.26 1.26 0 0 1 .54-.52 1 1 0 0 1 .32.11c.3.15.44.14.65-.08a.85.85 0 0 1 .24-.19 2.44 2.44 0 0 1 .4.15c.25.11.33.17.33.26 0 .14-.39.56-.52.56Zm10.45-5.22a1.88 1.88 0 0 1-.46.25c-.18.06-.4.15-.5.2a.9.9 0 0 1-.25.07.9.9 0 0 0-.3.2.84.84 0 0 1-.34.18 1.4 1.4 0 0 0-.36.08 56.8 56.8 0 0 1-1.94.56l-.7.2-.68.19-.67.19c-.35.1-.9.25-1.24.36a3.31 3.31 0 0 1-.62.07 4.74 4.74 0 0 0-1.55.33.74.74 0 0 1-.41.07.6.6 0 0 1-.53-.16.6.6 0 0 1-.19-.25c0-.16-.16-.06-.3.2s-.18.3-.4.34a5.47 5.47 0 0 1-1.23-.02c-.05-.02-.12.1-.2.35-.4 1.16-1.1 1.97-1.7 1.97a7.28 7.28 0 0 1-1.87-.6c-.2-.15.12-.2.43-.07.45.19.88.07 1.52-.43a3.35 3.35 0 0 0 1.16-1.44 2.75 2.75 0 0 0-.6-.88c-.1-.06-.05-.26.13-.6.2-.35.27-.4.39-.25.49.6.72.85.88.91a2.04 2.04 0 0 0 .86.04c.79-.04.77-.03.77-.64a.9.9 0 0 1 .2-.7c.3-.44.34-.4.34.27 0 .86.09.95.75.78a3.68 3.68 0 0 1 .57-.1 2.53 2.53 0 0 0 .46-.09 6.5 6.5 0 0 1 .76-.13c1.11-.12 1.39-.38 1.1-1.01a38.9 38.9 0 0 1-.36-.83 6.15 6.15 0 0 0-.72-1.36c-.22-.24-.22-.31-.08-.73.14-.4.19-.44.34-.3a2.11 2.11 0 0 0 .84.4.64.64 0 0 1 .32.13 1.5 1.5 0 0 1-.24.83l-.14.17.22.5a2.52 2.52 0 0 1 .23.96c.01.3.05.46.09.46a2.37 2.37 0 0 0 .45-.45 9.16 9.16 0 0 1 1.83-1.58c.23-.1.26-.1.57-.02a1.9 1.9 0 0 1 .93.48c.2.18.23.24.23.44a.46.46 0 0 0 .05.26c.04.03.16-.01.28-.07a1.02 1.02 0 0 1 .27-.12.82.82 0 0 0 .23-.07l.48-.22c.28-.12.32-.15.28-.26a7.26 7.26 0 0 0-.8-1.46c-.42-.64-.52-.77-.67-.8-.22-.06-.24-.16-.17-.61.12-.72.09-.69.33-.49a.73.73 0 0 0 .28.16 3.93 3.93 0 0 1 1.07.27.38.38 0 0 1-.04.22 4.18 4.18 0 0 0-.24.82 2.06 2.06 0 0 0 .22.5 4.4 4.4 0 0 1 .7 1.75c.06.46.06.47-.06.58Zm1.82-.61c-.04 0-.15-.15-.25-.34l-.25-.43-.53-.9-.2-.36-.26-.45-.34-.6-.17-.3.06-.5a3.29 3.29 0 0 1 .1-.55c.05-.1.18-.06.24.08a2.65 2.65 0 0 0 .18.34c.11.18.31.55.76 1.4a10.86 10.86 0 0 1 .64 1.53c.11.36.12 1.08.02 1.08Zm23.32-53.76a18.8 18.8 0 0 0 1.5-.32 1.11 1.11 0 0 1 .64-.02 10.68 10.68 0 0 0 1.3.76c.28.14.37.29.57.9a12.84 12.84 0 0 1 .37 1.3l.2.76.16.7c.09.42.09.45-.02.65a9.54 9.54 0 0 1-.71 1.03c-.11.13-.2.08-.72-.36l-.67-.6a.4.4 0 0 1-.18-.36 7.6 7.6 0 0 0-.46-1.94.92.92 0 0 1-.08-.24 2.27 2.27 0 0 0-.14-.37c-.14-.32-.31-.47-.86-.77l-.32-.2c-.09-.06-.28-.17-.43-.24s-.3-.17-.35-.2a1.08 1.08 0 0 0-.18-.13c-.27-.15-.13-.28.38-.35ZM72.1 89.16c-.08.1-.13.12-.3.1a1.32 1.32 0 0 1-.35-.1c-.14-.06-.16-.1-.15-.3a.8.8 0 0 1 .1-.37c.08-.13.11-.14.38-.1a1.36 1.36 0 0 1 .35.06c.08.04.06.57-.03.71Zm2.78 4.48a1.24 1.24 0 0 1-1.01.76 4.87 4.87 0 0 1-1.6.17c-.1-.1.06-.2.33-.24a1.8 1.8 0 0 0 .92-.37 3.67 3.67 0 0 0 .77-1.63 1.31 1.31 0 0 0 .02-.97 1.5 1.5 0 0 0-.91-.41 1.01 1.01 0 0 1-.42-.15 1.71 1.71 0 0 1-.2-.8v-.2l.27.04a2.7 2.7 0 0 1 .58.18 2.64 2.64 0 0 1 1.01.97 2.95 2.95 0 0 1 .33 1.56c.03.75.02.83-.09 1.1ZM85.14 82a4.64 4.64 0 0 1-.2.66 11.27 11.27 0 0 1-1.63 1.9l-.89.9-.2.26.09.2a2.33 2.33 0 0 1 .2 1.65 1.43 1.43 0 0 1-.53.57 1.86 1.86 0 0 1-1.28-.06 1.62 1.62 0 0 1-.4-.25c-.14-.16-.24-.14-.58.2a2.66 2.66 0 0 1-.48.39c-.1.05-.57.4-1.05.77s-1.14.86-1.47 1.09a6.8 6.8 0 0 0-.62.46c-.02.03-.1.06-.16.06-.1 0-.22-.11-.47-.42-.19-.23-.46-.57-.62-.74-.29-.34-.64-.76-1.37-1.67l-.43-.53.03-.39c.04-.48.1-.55.25-.33a32.76 32.76 0 0 0 2.47 2.8c.14.05.3-.03.68-.3l.45-.33.68-.52.9-.7c.2-.14.52-.4.74-.6.42-.37.45-.44.3-.8a2.67 2.67 0 0 1-.07-1.02 3.28 3.28 0 0 1 .33-1.7l.11-.11.19.2a4.46 4.46 0 0 1 .68 1.4c.11.52.12.51 1.41-.8a14.23 14.23 0 0 0 2.34-2.76c.26-.57.18-.65-.35-.38a2.14 2.14 0 0 0-1.03.94c-.07.38-.33-.01-.38-.59a.9.9 0 0 1 .42-1 4.43 4.43 0 0 1 1.15-.57c.18-.07.43-.17.54-.24s.34-.18.5-.26a4.57 4.57 0 0 0 .54-.35c.39-.3.48-.3.58.12l.11.45c.03.08-.08.24-.54.73a2.88 2.88 0 0 0-.94 1.67Zm1.8.95a.95.95 0 0 0-.28.11.41.41 0 0 1-.24.06c-.11-.01-.13-.06-.17-.44-.05-.41-.04-.43.07-.53a.46.46 0 0 1 .2-.1 1.29 1.29 0 0 0 .3-.1c.3-.14.36-.14.39 0l.05.44c.03.35-.05.5-.33.56Zm4.15-7.3-.65.55-.19.16.09.31.17.6c.11.4.16.79.1.79a7.44 7.44 0 0 1-1.07-.65 1.49 1.49 0 0 0-.4-.21.77.77 0 0 0-.27.13 13.15 13.15 0 0 1-1.2.73c-.08 0-.06-.18.12-.85.1-.35.17-.7.18-.76 0-.1-.11-.23-.48-.54-.27-.23-.56-.47-.65-.53-.13-.09-.15-.14-.1-.18a3.38 3.38 0 0 1 .86-.13 2.6 2.6 0 0 0 .86-.15 1.9 1.9 0 0 0 .18-.39c.42-1.08.4-1.08.54-1.05a.15.15 0 0 1 .1.13 2.4 2.4 0 0 0 .12.32l.33.82c.08.22.22.27.89.31.71.05.94.08.94.16a2.58 2.58 0 0 1-.47.44Zm.72-3.45c.11.6.12.7.04.7a29.3 29.3 0 0 1-2.08-1.63 4.02 4.02 0 0 1-.26-1.23 3.57 3.57 0 0 1 .42-1.19l.49-1a2.74 2.74 0 0 1 1.02-1.26c.53-.32.58-.34.68-.33.07 0 .13.07.15.17s.08.21.1.27l.13.32.23.64c.15.4.16.42.07.58a25.5 25.5 0 0 0-.59 1.05l-.2.35-.3.55c-.2.36-.2.42.1 2.02Zm3.74-2.7A13.54 13.54 0 0 1 94.8 71a14.87 14.87 0 0 0-.63 1.18c-.14.28-.5.45-1.12.55a2.11 2.11 0 0 0-.4.1c-.23.08-.3 0-.35-.4a4.74 4.74 0 0 0-.11-.56 4.64 4.64 0 0 1-.12-.58c-.02-.27-.02-.33.07-.43a3.54 3.54 0 0 0 .44-.69c.08-.13.16-.28.2-.32a7.93 7.93 0 0 0 .48-1 1.65 1.65 0 0 0-.13-1.4 1.9 1.9 0 0 1-.1-.27l-.16-.44a30.22 30.22 0 0 1-.44-1.18 2.88 2.88 0 0 1-.18-2.23l.4-1.4a1.9 1.9 0 0 1 .8-1.35c.4-.33.57-.35.7-.1l.49.81a2.83 2.83 0 0 1 .36.73l-.1.37-.18.56-.4 1.43-.12.43.1.35c.14.42.27.8.34.94l.2.54.37 1.03a.96.96 0 0 1 .08.23.71.71 0 0 0 .08.2c.33.69.36.92.18 1.38Zm1.59-4.1c-.24.77-.31.85-.95 1.1a3.47 3.47 0 0 0-.51.23c-.1.09-.36.03-.38-.09a2.31 2.31 0 0 0-.13-.33 1.45 1.45 0 0 1-.1-.29.9.9 0 0 0-.07-.23l-.2-.47-.12-.28.17-.34a6.42 6.42 0 0 0 .3-.79l.22-.7a3.56 3.56 0 0 0 .16-1.17 6.88 6.88 0 0 0-.47-.89 109.09 109.09 0 0 1-1.28-2.23l-.2-.38.01-1.5a5.04 5.04 0 0 1 .13-1.86 2.44 2.44 0 0 1 .23-.52 4.17 4.17 0 0 1 .7-.79.7.7 0 0 1 .2.18l.63.74c.42.5.46.59.43.73l-.08 1c-.03.46-.07.94-.1 1.05a2.4 2.4 0 0 0-.06.52c0 .32.07.48.52 1.25a2.73 2.73 0 0 1 .18.34c0 .03.65 1.16.81 1.43.58.94.7 1.2.7 1.49a14.58 14.58 0 0 1-.74 2.8Zm1.43-6.17a1.08 1.08 0 0 1-.26.32 5.95 5.95 0 0 1-1.06.7 9.78 9.78 0 0 1-1-1.67.25.25 0 0 1 .06-.15 6 6 0 0 0 .24-1.87c.05-1.12.05-1.12-.55-1.82a48.05 48.05 0 0 1-1.87-2.3c-.32-.47-.38-.9-.5-3.06-.03-.63-.02-.7.09-.97a2.26 2.26 0 0 1 .57-.85 4.38 4.38 0 0 1 .71.53l.73.63c.06.09.1.3.14.97.16 2.07.15 2.05.3 2.28.07.11.32.44.55.73l.86 1.04c.24.3.62.75.85 1a1.77 1.77 0 0 1 .45.68 22.44 22.44 0 0 1-.31 3.8Zm.41-7.14c-.02.14-.15.3-.55.69a2.91 2.91 0 0 1-.6.5 3.77 3.77 0 0 1-.65-.7l-.56-.68-.02-1.1a6.85 6.85 0 0 0-.18-1.9c-.06-.2-.46-.58-1.74-1.64a10.11 10.11 0 0 1-1.47-1.47 6.5 6.5 0 0 1-.25-.7c-.08-.28-.21-.7-.3-.9s-.16-.47-.19-.6l-.1-.4a2.51 2.51 0 0 1 .22-1.6c.12-.29.2-.34.37-.21.04.04.4.26.8.5.68.4.71.42.74.6a11.81 11.81 0 0 0 .3 1.18c.1.31.15.55.27 1.14a1 1 0 0 0 .23.46c.22.22 1.56 1.43 2.54 2.27a6.04 6.04 0 0 1 .83.8 3.77 3.77 0 0 1 .16 1.05 23.6 23.6 0 0 1 .15 2.72Z" fill="#262e67" fill-rule="evenodd"/><path data-name="Path 43" d="m41.83 52.9-1.36-.63.43.2a5.25 5.25 0 0 0 .93.42Z" fill="#050606"/><path data-name="Path 44" d="m70.96 46.52.63-.26h.03l.42-.2-1.09.46h.01Z" fill="#050606"/><path data-name="Path 45" d="m45.73 54.66.03.02Z" fill="#050606"/><path data-name="Path 46" d="M53.51 47.91c1.47 1.4 2 1.92 2.64 2.54a6.36 6.36 0 0 0 .73.66l6.6-6.6-10.45 2.9c.1.1.27.3.48.5Z" fill="#e82129"/><path data-name="Path 47" d="m48.75 49.52 1.56-1.5a4.52 4.52 0 0 0 .68-.74l-6.37-1.73-.16-.05-2.46-.67a6.6 6.6 0 0 1-.32-.08l-.2-.06-1-.27 6.57 6.7a16.03 16.03 0 0 0 1.7-1.6Z" fill="#e82129"/><path data-name="Path 48" d="M52.24 72.96v-51.2h-.49v51.2c.17.02.33-.03.5 0Z" fill="#231f20"/><path data-name="Path 49" d="M51.75 79.66v3.96h.5v-3.95Z" fill="#231f20"/><path data-name="Path 50" d="M52.1 70.3h-.2a.15.15 0 0 0 .2 0Z" fill="#050606"/><g data-name="Group 3"><path data-name="Path 51" d="M51.81 57.22h.01Z"/><path data-name="Path 52" d="M44.58 54.88c1.1.83 2.21 1.65 3.34 2.44.32.22.74.51.92.65s.6.42.92.65l.92.64.62.44a2.82 2.82 0 0 1 .37.28l.33.29.3-.27a4.92 4.92 0 0 1 .53-.4l2-1.4 1.84-1.3 1.19-.85.9-.63a3.95 3.95 0 0 0 .4-.3.55.55 0 0 1 .2-.12c.03 0 .03-.02 0-.07s-.1-.04-.17.03a.36.36 0 0 1-.17.09 1.18 1.18 0 0 0-.3.1 91 91 0 0 1-1.21.57l-5.5 2.7Z" fill="#2c6433"/><path data-name="Path 53" d="M98.38 31.57a2.62 2.62 0 0 0-.52.57l-.3.35a1.36 1.36 0 0 0-.17.21 265.46 265.46 0 0 0-1.93 2.4c-.6.76-.66.81-1.23.95l-.65.16-.73.2-.67.17-1.43.4-.6.16-.8.22-.7.19-.6.15a2.32 2.32 0 0 0-.36.1 3.4 3.4 0 0 1-.45.1L65.7 43.89l-7.94 7.8-.79.01-.79.02-4.17-4.29-4.15 4.29-.84-.02-.85-.01-8.15-7.94-12.91-3.58-6.88-1.85-4.86-1.3c-.71-.18-1.43-.43-2.15-.6a5.84 5.84 0 0 1-2.02-.62 4.4 4.4 0 0 1-.91-.91L5.62 31.6A41.23 41.23 0 0 0 8.53 36a2.68 2.68 0 0 0 .46.5 2.79 2.79 0 0 0 .67.35l7.1 2.96c1.39.58 2.81 1.11 4.22 1.68l.04.02.5.2 24.12 9.99h-2.23L28 45.48a.29.29 0 0 1-.07-.03l-1.62-.65c-.6-.2-2.13-.83-3.14-1.27l-2.55-1.02-8.23-3.2-2.45-.94c1.61.62 3.19 1.5 4.76 2.23l4.7 2.2 3 1.36 4.56 2.04a.37.37 0 0 1 .16.04l.63.32 11.14 5c.07.02.1.04.08.05l1.45.65h.05l1.36.62a.08.08 0 0 1 .07.03l2 .91.16.08c.08.05.44.22.75.35l.44.2.32.13.16.08 6.07 2.55h.01l-3.62-3.6-3.17-1.34.13.05a.05.05 0 0 1-.01-.03 22.59 22.59 0 0 1 3.09 0c.13.05 2.57 2.47 3.3 3.27l.55.35.5-.47c.84-.9 3.12-3.14 3.22-3.16a32.4 32.4 0 0 1 2.42-.02l1.2-.01-4 1.67c-.3.3-.74.7-1.34 1.3-.85.84-1.65 1.83-1.78 1.94l9.79-4.27 11.45-5.23.07.01 13.5-6.13 6.14-2.87a.25.25 0 0 0-.03-.01l-4.69 1.84-19.45 7.75a.14.14 0 0 1-.14.05l-5.36 2.14a.87.87 0 0 1-.12.05l-.45.18a.75.75 0 0 1-.13.05l-.71.28c-.05.05-.1.07-.14.06l-.36.14v.01l-.06.02-.43.17a.17.17 0 0 1-.08.03l-.58.23h-.17a13.15 13.15 0 0 1-1.44.04h-.59l9.78-4.02.02-.01 3.92-1.62a.73.73 0 0 1 .23-.07l.47-.2a3.14 3.14 0 0 1 .44-.18l.48-.2.21-.1a.59.59 0 0 1 .21-.07h.02l.54-.23.15-.08a.61.61 0 0 1 .21-.07l.75-.31.35-.14 1.05-.44a.16.16 0 0 1 .05-.02l10.92-4.53a3.7 3.7 0 0 1 .42-.17.94.94 0 0 0 .21-.09l.34-.16a.88.88 0 0 1 .22-.08 1.32 1.32 0 0 0 .3-.11l.88-.37.45-.2.46-.18c.16-.06.38-.15.46-.2s.3-.12.46-.18l.87-.37a1.32 1.32 0 0 1 .3-.12.72.72 0 0 0 .22-.07l.34-.15.45-.2a1.47 1.47 0 0 1 .33-.12c.14 0 .54-.5 1.22-1.53l.7-1.03.43-.62.27-.38a1.75 1.75 0 0 0 .27-.43.14.14 0 0 1 .07-.1 2.65 2.65 0 0 0 .46-.7c.03-.07.08-.12.12-.12s.05-.04.05-.08-.02-.08-.03-.08Z"/></g><path data-name="Rectangle 1" fill="#231f20" d="M18.2 51.72h67.23v.5H18.2z"/><g data-name="Group 4" fill="#fff"><path data-name="Path 54" d="M51.95 52.83a1.17 1.17 0 1 1 .69-2.13 1.35 1.35 0 1 0 0 1.9 1.16 1.16 0 0 1-.69.23Z"/><path data-name="Path 55" d="m52.34 51.65 1.81-.58-1.12 1.54v-1.9l1.12 1.53Z"/></g><g data-name="Group 5" fill="#231f20"><path data-name="Path 56" d="m44.74 77.2.02-.08.14.03c.3.06.4 0 .62-.93l.58-2.33c.23-.93.18-1.03-.11-1.11l-.14-.04.02-.09 3.56.89-.34 1.37-.06-.01-.03-.25a1.4 1.4 0 0 0-1.12-1.4l-.23-.06c-.29-.07-.35.03-.58.94l-.26 1.06.3.08a.84.84 0 0 0 .96-.48l.09-.14.06.01-.43 1.74-.07-.01v-.16a.84.84 0 0 0-.63-.88l-.3-.07-.3 1.18c-.23.91-.21 1.03.06 1.1l.38.1c.73.18 1.16-.1 1.7-.92l.13-.2h.06l-.39 1.58-3.7-.91Z"/><path data-name="Path 57" d="M52.27 78.46v-.09h.18c.37 0 .34-.18.06-1.06l-.23-.68-1.56-.07-.1.27a2.39 2.39 0 0 0-.2.84c-.02.34.09.6.4.63l.15.02v.08l-1.56-.07v-.08h.07c.28-.01.46-.13 1.03-1.45l1.32-3.09.45.02 1.28 3.58c.36 1.01.44 1.1.71 1.15h.06v.09l-2.06-.1Zm-1.5-1.98 1.48.06-.66-2.01Z"/><path data-name="Path 58" d="m57.92 78-.01-.08.18-.04c.36-.08.3-.25-.18-1.05l-.37-.62-1.53.27-.05.28a2.38 2.38 0 0 0-.01.87c.06.33.22.57.53.53l.15-.02.01.08-1.53.27-.02-.08.07-.02c.27-.07.42-.22.7-1.64l.62-3.3.44-.07 2.02 3.22c.57.9.67.97.95.96h.05l.02.08-2.04.36Zm-1.9-1.6 1.47-.26-1.08-1.83Z"/></g><g data-name="Group 6"><path data-name="Path 59" d="M41.1 25.1a28.88 28.88 0 0 0 10.4 55.47v-.35a28.53 28.53 0 0 1-.22-57.03v-.35A28.64 28.64 0 0 0 41.1 25.1Z"/><path data-name="Path 60" d="M78.95 40.46a28.85 28.85 0 0 0-26.26-17.63v.34a28.53 28.53 0 0 1-.2 57.06v.35a28.9 28.9 0 0 0 26.46-40.11Z"/><path data-name="Path 61" d="M43.86 32.4a20.95 20.95 0 0 0 7.65 40.24v-.32a20.62 20.62 0 0 1-.23-41.23v-.32a20.77 20.77 0 0 0-7.42 1.63Z"/><path data-name="Path 62" d="M72.64 51.7a20.65 20.65 0 0 1-20.16 20.62v.32a20.95 20.95 0 0 0 .2-41.88v.33A20.65 20.65 0 0 1 72.65 51.7Z"/><path data-name="Path 63" d="M41.38 41.39a14.69 14.69 0 0 0 10.13 25.07v-.32a14.36 14.36 0 0 1-.23-28.72v-.32a14.58 14.58 0 0 0-9.9 4.29Z"/><path data-name="Path 64" d="M66.13 51.78a14.38 14.38 0 0 1-13.65 14.34v.33a14.69 14.69 0 0 0 .2-29.33v.32a14.38 14.38 0 0 1 13.45 14.34Z"/></g><g data-name="Group 7" fill="#262e67"><path data-name="Path 65" d="m17.86 66.23.18-.09.03.06a.64.64 0 0 0 .16.22q.1.09.29 0l2.11-1q.2-.09.2-.22a.58.58 0 0 0-.05-.27l-.03-.06.18-.08 1.02 2.17-.75.37-.1-.22.18-.11a.53.53 0 0 0 .2-.22.37.37 0 0 0-.03-.32l-.34-.73-1.14.54.49 1.04-.21.1-.49-1.04-1.29.6.4.83a.4.4 0 0 0 .24.25.53.53 0 0 0 .3 0l.2-.06.1.22-.77.32-1.08-2.3Z"/><path data-name="Path 66" d="m19.2 69.05.18-.1.03.06a.59.59 0 0 0 .2.2q.1.07.3-.04l2-1.15q.19-.11.18-.24a.59.59 0 0 0-.09-.27l-.03-.05.18-.1.69 1.2-.18.1-.03-.05a.61.61 0 0 0-.18-.21c-.08-.05-.17-.04-.3.03l-2.27 1.31.46.81a.38.38 0 0 0 .17.17.4.4 0 0 0 .21.03.75.75 0 0 0 .2-.05l.33-.13.13.21-.9.48Z"/><path data-name="Path 67" d="m20.8 71.76.16-.11.03.05a.64.64 0 0 0 .2.2c.08.03.17.02.28-.06l1.92-1.34c.12-.08.18-.17.17-.25a.6.6 0 0 0-.11-.26l-.04-.05.17-.12 1.36 1.97-.67.5-.14-.2.16-.14a.53.53 0 0 0 .16-.25.37.37 0 0 0-.08-.32l-.46-.65-1.04.72.66.94-.2.13-.65-.94-1.16.81.52.76a.41.41 0 0 0 .28.2.53.53 0 0 0 .3-.06l.19-.09.14.2-.7.45-1.45-2.09Z"/><path data-name="Path 68" d="M23.54 75.53a1.38 1.38 0 0 1-.34-.75 1.34 1.34 0 0 1 .16-.77 2.38 2.38 0 0 1 .6-.7 2.22 2.22 0 0 1 .81-.45 1.38 1.38 0 0 1 .8 0 1.5 1.5 0 0 1 .7.5 1.36 1.36 0 0 1 .35.66.45.45 0 0 1-.14.43.29.29 0 0 1-.26.06.47.47 0 0 1-.26-.17.82.82 0 0 0 .19-.22.51.51 0 0 0 .07-.29.53.53 0 0 0-.14-.31.81.81 0 0 0-.79-.34 2.2 2.2 0 0 0-.99.53 2.5 2.5 0 0 0-.51.55 1.05 1.05 0 0 0-.18.57.85.85 0 0 0 .22.55 1.03 1.03 0 0 0 .44.34 1.1 1.1 0 0 0 .42.07.2.2 0 0 1-.02.1.24.24 0 0 1-.07.09.37.37 0 0 1-.25.07.82.82 0 0 1-.38-.13 1.69 1.69 0 0 1-.43-.4Z"/><path data-name="Path 69" d="m24.96 77.06.14-.14.08.08a.64.64 0 0 0 .23.16c.08.03.17 0 .27-.1l1.88-1.85-.32-.32a.33.33 0 0 0-.28-.13.6.6 0 0 0-.27.12l-.16.13-.17-.18.6-.57 1.88 1.92-.58.6-.17-.18.13-.16a.6.6 0 0 0 .12-.26.34.34 0 0 0-.12-.3l-.32-.32-1.87 1.82c-.1.1-.15.2-.12.28a.6.6 0 0 0 .15.24l.07.08-.14.14-1.03-1.06Z"/><path data-name="Path 70" d="m26.76 78.88.13-.15.05.04a.64.64 0 0 0 .24.13c.08.03.17-.02.26-.12L28.97 77c.1-.11.12-.2.09-.28a.61.61 0 0 0-.17-.22l-.05-.04.13-.16.97.84q.93.8.33 1.49a.81.81 0 0 1-.36.25.85.85 0 0 1-.38.04 1.5 1.5 0 0 1-.35-.1L29 80.05a1.27 1.27 0 0 0 0 .37.4.4 0 0 0 .13.24h.01l-.13.16-.05-.04a2.6 2.6 0 0 1-.32-.33.53.53 0 0 1-.13-.26 1.15 1.15 0 0 1 .03-.35l.2-1.22-.3-.26-.63.74q-.14.16-.09.28a.64.64 0 0 0 .18.22l.04.04-.13.15-1.05-.9Zm1.83-.7.25.21a.72.72 0 0 0 .55.24.85.85 0 0 0 .48-.32.73.73 0 0 0 .23-.52.8.8 0 0 0-.33-.5l-.24-.2-.94 1.1Z"/><path data-name="Path 71" d="M30.47 81.92a1.49 1.49 0 0 1-.55-.67 1.32 1.32 0 0 1-.06-.78 2.39 2.39 0 0 1 .4-.85 2.36 2.36 0 0 1 .67-.65 1.3 1.3 0 0 1 .76-.2 1.52 1.52 0 0 1 .8.3 1.45 1.45 0 0 1 .54.65 1.36 1.36 0 0 1 .06.78 2.52 2.52 0 0 1-1.06 1.5 1.37 1.37 0 0 1-.77.21 1.45 1.45 0 0 1-.79-.3Zm.15-.21a.78.78 0 0 0 .84.1 2.89 2.89 0 0 0 1.27-1.78.78.78 0 0 0-.38-.75.8.8 0 0 0-.85-.11 2.83 2.83 0 0 0-1.26 1.78.79.79 0 0 0 .38.76Z"/><path data-name="Path 72" d="m32.27 83.1.1-.17.06.03a.58.58 0 0 0 .27.08q.12 0 .23-.19l1.15-2.03q.1-.18.03-.29a.61.61 0 0 0-.21-.18l-.06-.03.1-.17.76.42.19 3.13 1.03-1.84q.1-.18.03-.29a.61.61 0 0 0-.2-.18l-.06-.03.1-.17 1.04.58-.1.18-.06-.03a.59.59 0 0 0-.27-.09q-.12 0-.23.2l-1.4 2.48-.3-.17-.2-3.26L33.18 83c-.08.13-.09.23-.04.3a.6.6 0 0 0 .2.2l.06.02-.1.17-1.04-.58Z"/><path data-name="Path 73" d="m35.6 84.91.08-.18.05.03a.6.6 0 0 0 .28.06c.08 0 .16-.07.22-.2l.98-2.1q.09-.2.01-.3a.6.6 0 0 0-.22-.17l-.06-.03.08-.18 1.26.58-.09.19-.05-.03a.6.6 0 0 0-.28-.06c-.08 0-.16.07-.22.2l-.97 2.1q-.1.2-.02.3a.59.59 0 0 0 .23.17l.05.02-.08.18-1.25-.58Z"/><path data-name="Path 74" d="M38.72 86.3a1.38 1.38 0 0 1-.67-.49 1.34 1.34 0 0 1-.23-.74 2.37 2.37 0 0 1 .18-.92 2.22 2.22 0 0 1 .48-.78 1.38 1.38 0 0 1 .7-.39 1.5 1.5 0 0 1 .87.1 1.36 1.36 0 0 1 .62.4.44.44 0 0 1 .08.44.29.29 0 0 1-.2.19.47.47 0 0 1-.3-.02.81.81 0 0 0 .05-.3.51.51 0 0 0-.08-.27.53.53 0 0 0-.27-.2.81.81 0 0 0-.86.08 2.2 2.2 0 0 0-.6.95 2.5 2.5 0 0 0-.18.73 1.05 1.05 0 0 0 .12.59.85.85 0 0 0 .46.37 1.04 1.04 0 0 0 .55.08 1.1 1.1 0 0 0 .4-.15.2.2 0 0 1 .04.09.23.23 0 0 1-.02.12.37.37 0 0 1-.19.18.82.82 0 0 1-.38.08 1.7 1.7 0 0 1-.57-.13Z"/><path data-name="Path 75" d="m41.28 87.15.04-.19.1.02a.27.27 0 0 0 .21-.02.95.95 0 0 0 .22-.25l1.7-2.49.36.09.34 3.11a.4.4 0 0 0 .07.22.36.36 0 0 0 .2.1l.06.02-.05.2-1.27-.32.05-.2.1.03q.28.07.33-.15a.37.37 0 0 0 .01-.08.8.8 0 0 0 0-.1l-.05-.56-1.22-.3-.3.44a.58.58 0 0 0-.08.19q-.06.22.25.3l.1.02-.04.2-1.13-.28Zm1.34-1.08 1.05.26-.1-.88c0-.14-.02-.28-.03-.41a3.64 3.64 0 0 1-.01-.37 2.68 2.68 0 0 1-.16.3l-.22.33Z"/><path data-name="Path 76" d="m45.73 88.14-.55-3.07a.3.3 0 0 0-.29-.3h-.06l.03-.2 1.3.2-.04.2-.1-.02q-.29-.04-.33.18a.33.33 0 0 0 0 .08.72.72 0 0 0 .02.1l.27 1.61.06.42c0 .14.02.27.03.38a5.47 5.47 0 0 1 .34-.73l.75-1.4.05-.1a.44.44 0 0 0 .03-.1c.02-.15-.07-.25-.27-.28l-.11-.02.03-.2 1.14.19-.03.2-.09-.02a.3.3 0 0 0-.22.04.78.78 0 0 0-.2.27l-1.42 2.63-.34-.05Z"/><path data-name="Path 77" d="m47.82 88.43.01-.2h.07a.59.59 0 0 0 .28-.03c.07-.03.12-.12.13-.27l.21-2.3c.01-.15-.02-.25-.09-.3a.59.59 0 0 0-.27-.08h-.06l.02-.2 1.37.12-.01.2h-.07a.6.6 0 0 0-.28.03c-.07.03-.12.12-.13.27l-.21 2.3q-.02.22.09.3a.6.6 0 0 0 .27.08h.06l-.02.2-1.38-.12Z"/><path data-name="Path 78" d="M49.52 88.6v-.2h.09a.28.28 0 0 0 .2-.06.97.97 0 0 0 .17-.3l1.1-2.8h.37l1.02 2.96a.4.4 0 0 0 .12.2.36.36 0 0 0 .21.06h.07v.2l-1.31-.02v-.2h.1c.2 0 .3-.08.3-.23a.4.4 0 0 0-.01-.08.82.82 0 0 0-.03-.1l-.18-.53-1.25-.02-.19.5a.6.6 0 0 0-.04.2c0 .15.1.23.3.23h.12v.2l-1.16-.02Zm1.07-1.35 1.08.02-.29-.84-.13-.4-.1-.36a2.72 2.72 0 0 1-.08.33l-.14.38-.34.87Z"/><path data-name="Path 79" d="m53.46 88.61-.01-.2h.1a.64.64 0 0 0 .28-.08c.07-.04.1-.13.1-.27l-.17-2.63-.46.03a.33.33 0 0 0-.28.13.6.6 0 0 0-.08.28l-.01.2-.25.02-.03-.83 2.67-.17.08.83-.25.01-.04-.2a.6.6 0 0 0-.11-.26.33.33 0 0 0-.3-.1l-.46.03.17 2.6c0 .15.05.24.13.28a.6.6 0 0 0 .28.04h.1l.02.2Z"/><path data-name="Path 80" d="m55.97 88.4-.02-.2H56a.59.59 0 0 0 .26-.1c.07-.04.1-.14.08-.3l-.3-2.28c-.03-.15-.08-.24-.16-.27a.6.6 0 0 0-.28-.02h-.06l-.03-.2 1.37-.18.03.2-.06.01a.6.6 0 0 0-.27.1c-.07.05-.1.15-.07.3l.3 2.3c.02.14.07.23.15.26a.6.6 0 0 0 .28.02h.07l.02.2Z"/><path data-name="Path 81" d="M59.42 87.89a1.5 1.5 0 0 1-.87-.04 1.31 1.31 0 0 1-.61-.5 2.39 2.39 0 0 1-.35-.87 2.34 2.34 0 0 1-.03-.93 1.3 1.3 0 0 1 .36-.7 1.51 1.51 0 0 1 .78-.38 1.45 1.45 0 0 1 .83.04 1.36 1.36 0 0 1 .62.49 2.53 2.53 0 0 1 .38 1.8 1.38 1.38 0 0 1-.37.7 1.45 1.45 0 0 1-.74.38Zm-.06-.25a.78.78 0 0 0 .65-.54 2.89 2.89 0 0 0-.45-2.15.78.78 0 0 0-.81-.23.8.8 0 0 0-.66.54 2.83 2.83 0 0 0 .46 2.15.79.79 0 0 0 .8.23Z"/><path data-name="Path 82" d="m61.5 87.37-.05-.19.05-.02a.58.58 0 0 0 .25-.14q.09-.1.02-.3l-.72-2.22c-.04-.13-.1-.2-.19-.21a.62.62 0 0 0-.28.03l-.05.02-.07-.2.83-.26 2.43 1.98-.65-2c-.04-.14-.1-.2-.2-.22a.62.62 0 0 0-.27.03l-.06.02-.06-.2 1.13-.36.07.19-.06.02a.59.59 0 0 0-.25.14c-.06.06-.06.16-.02.3l.88 2.71-.32.1-2.54-2.05.68 2.08c.04.15.1.22.2.24a.59.59 0 0 0 .28-.03l.06-.02.06.2-1.14.36Z"/><path data-name="Path 83" d="m66.2 85.74-.1-.18.09-.04a.28.28 0 0 0 .15-.15.96.96 0 0 0 .01-.34l-.27-3 .33-.16 2.25 2.18a.4.4 0 0 0 .2.13.36.36 0 0 0 .2-.05l.06-.02.1.18-1.19.56-.08-.18.1-.04q.25-.13.16-.33a.35.35 0 0 0-.05-.07.74.74 0 0 0-.07-.08l-.4-.4-1.12.55.05.52a.6.6 0 0 0 .05.2c.07.14.2.17.38.08l.1-.05.1.18-1.05.5Zm.34-1.7.97-.46-.63-.62-.3-.3a3.62 3.62 0 0 1-.24-.28 2.65 2.65 0 0 1 .06.34l.05.4Z"/><path data-name="Path 84" d="M70.8 83.4a1.4 1.4 0 0 1-.89.23.98.98 0 0 1-.7-.54l-.95-1.58c-.07-.12-.15-.17-.23-.17a.62.62 0 0 0-.27.1l-.05.03-.1-.17 1.18-.72.1.17-.05.04a.58.58 0 0 0-.2.19q-.07.1.04.3l.96 1.59a.7.7 0 0 0 .5.38.9.9 0 0 0 .57-.14.79.79 0 0 0 .41-.5.75.75 0 0 0-.1-.55l-.98-1.62c-.07-.12-.15-.17-.24-.17a.61.61 0 0 0-.26.1l-.06.03-.1-.17 1.03-.62.1.17-.06.03a.59.59 0 0 0-.2.2c-.05.07-.03.17.05.3l.97 1.6a.95.95 0 0 1 .13.8 1.25 1.25 0 0 1-.6.68Z"/><path data-name="Path 85" d="m72.94 81.94-.12-.16.09-.06a.64.64 0 0 0 .19-.2c.04-.08.02-.18-.07-.29l-1.55-2.12-.37.27a.33.33 0 0 0-.17.26.6.6 0 0 0 .08.28l.1.18-.2.14-.47-.68 2.16-1.58.5.65-.2.15-.13-.15a.6.6 0 0 0-.24-.16.33.33 0 0 0-.3.08l-.38.27 1.54 2.1q.14.19.26.17a.6.6 0 0 0 .26-.12l.09-.06.12.16-1.2.87Z"/><path data-name="Path 86" d="m75.01 80.41-.13-.14.05-.05a.6.6 0 0 0 .16-.22q.05-.12-.1-.29l-1.55-1.74q-.14-.15-.26-.12a.61.61 0 0 0-.24.14l-.05.04-.13-.15 1.03-.92.13.15-.04.04a.6.6 0 0 0-.17.23q-.04.12.1.29l.64.71 1.15-1.02-.64-.72q-.15-.17-.27-.14a.59.59 0 0 0-.25.14l-.04.04-.14-.14 1.04-.92.13.14-.05.05a.59.59 0 0 0-.16.22c-.03.08 0 .18.1.3l1.55 1.73c.1.1.18.14.26.12a.65.65 0 0 0 .24-.14l.05-.04.13.15-1.03.92-.13-.15.04-.04a.6.6 0 0 0 .17-.23c.03-.08 0-.18-.1-.29l-.74-.83-1.15 1.03.74.83c.1.11.19.15.27.13a.59.59 0 0 0 .24-.14l.05-.04.13.15-1.03.92Z"/><path data-name="Path 87" d="M79.06 76.6a1.5 1.5 0 0 1-.72.47 1.32 1.32 0 0 1-.8-.05 2.38 2.38 0 0 1-.78-.5 2.34 2.34 0 0 1-.57-.74 1.3 1.3 0 0 1-.11-.77 1.51 1.51 0 0 1 .4-.77 1.45 1.45 0 0 1 .7-.45 1.36 1.36 0 0 1 .79.04 2.52 2.52 0 0 1 1.36 1.23 1.37 1.37 0 0 1 .1.79 1.45 1.45 0 0 1-.38.75Zm-.19-.18a.78.78 0 0 0 .21-.82 2.88 2.88 0 0 0-1.62-1.47.78.78 0 0 0-.79.29.8.8 0 0 0-.22.82 2.83 2.83 0 0 0 1.63 1.47.79.79 0 0 0 .8-.29Z"/><path data-name="Path 88" d="m80.44 74.96-.16-.12.03-.05a.63.63 0 0 0 .12-.25c.02-.08-.03-.17-.14-.25l-1.88-1.41c-.11-.08-.2-.1-.28-.07a.61.61 0 0 0-.21.19l-.04.05-.16-.12.77-1.02q.73-.98 1.46-.43a.81.81 0 0 1 .28.34.84.84 0 0 1 .06.38 1.51 1.51 0 0 1-.06.36l1.21.1a1.26 1.26 0 0 0 .37-.02.4.4 0 0 0 .23-.16h.01l.16.11-.04.06a2.63 2.63 0 0 1-.3.34.54.54 0 0 1-.26.14 1.12 1.12 0 0 1-.34 0l-1.24-.12-.23.31.78.59c.11.08.2.1.28.06a.64.64 0 0 0 .2-.18l.04-.05.16.12-.82 1.1Zm-.82-1.78.2-.26a.72.72 0 0 0 .2-.57.85.85 0 0 0-.36-.46.73.73 0 0 0-.53-.19.8.8 0 0 0-.47.36l-.2.26 1.16.86Z"/><path data-name="Path 89" d="m82.36 72.33-.17-.11.03-.05a.6.6 0 0 0 .1-.27c0-.08-.05-.17-.18-.25L80.2 70.4q-.18-.12-.3-.05a.6.6 0 0 0-.2.2l-.03.05-.17-.11.75-1.16.17.1-.03.06a.6.6 0 0 0-.1.26c-.01.09.05.17.17.25l1.94 1.25c.13.08.23.1.3.06a.6.6 0 0 0 .2-.2l.04-.05.17.1-.75 1.17Z"/><path data-name="Path 90" d="m83.63 70.28-.17-.1.05-.1a.63.63 0 0 0 .09-.27c0-.08-.06-.16-.18-.22l-2.3-1.28-.23.4a.33.33 0 0 0-.03.3.6.6 0 0 0 .19.23l.16.12-.12.21-.71-.42 1.3-2.34.73.38-.12.22-.19-.08a.6.6 0 0 0-.29-.04.34.34 0 0 0-.24.2l-.22.4 2.28 1.26q.2.1.3.04a.6.6 0 0 0 .19-.22l.05-.1.18.1-.72 1.3Z"/><path data-name="Path 91" d="m85.09 67.5-.19-.08.05-.1a.64.64 0 0 0 .06-.27q0-.13-.2-.21l-.81-.37-1.75.18a.8.8 0 0 0-.24.06.28.28 0 0 0-.13.15l-.03.05-.18-.08.53-1.19.19.08-.08.16a.23.23 0 0 0-.02.17.16.16 0 0 0 .08.08.33.33 0 0 0 .13.03 1.28 1.28 0 0 0 .13 0l.73-.06a2.99 2.99 0 0 1 .32-.01l.27.01-.18-.21-.2-.27-.37-.5a.58.58 0 0 0-.12-.12.54.54 0 0 0-.1-.07q-.2-.09-.32.17l-.05.13-.18-.08.47-1.06.18.08-.02.05a.28.28 0 0 0 0 .2 1.17 1.17 0 0 0 .18.3l.96 1.3.8.36q.2.1.3.02a.59.59 0 0 0 .16-.23l.05-.1.18.08-.6 1.35Z"/></g></svg>